<?xml version="1.0" encoding="utf-8"?>
<!-- Generator: Adobe Illustrator 17.0.0, SVG Export Plug-In . SVG Version: 6.00 Build 0)  -->
<!DOCTYPE svg PUBLIC "-//W3C//DTD SVG 1.1//EN" "http://www.w3.org/Graphics/SVG/1.1/DTD/svg11.dtd">
<svg version="1.1" id="图层_1" xmlns="http://www.w3.org/2000/svg" xmlns:xlink="http://www.w3.org/1999/xlink" x="0px" y="0px"
	 width="100px" height="99.96px" viewBox="0 0 100 99.96" enable-background="new 0 0 100 99.96" xml:space="preserve">
<path fill="#FFFFFF" d="M100,94.499c0,2.761-2.239,5-5,5H5c-2.761,0-5-2.239-5-5v-90c0-2.761,2.239-5,5-5h90c2.761,0,5,2.239,5,5
	V94.499z"/>
<circle fill="#EFF3F8" cx="50" cy="39.087" r="15.833"/>
<path fill="#FFFFFF" d="M50,128.087"/>
<path fill="#EFF3F8" d="M18.314,100.46c-0.287-1.748-0.437-3.543-0.437-5.373c0-17.949,14.382-32.5,32.123-32.5
	s32.123,14.551,32.123,32.5c0,1.831-0.15,3.626-0.437,5.374"/>
</svg>
