<?xml version="1.0" encoding="utf-8"?>
<!-- Generator: Adobe Illustrator 17.0.0, SVG Export Plug-In . SVG Version: 6.00 Build 0)  -->
<!DOCTYPE svg PUBLIC "-//W3C//DTD SVG 1.1//EN" "http://www.w3.org/Graphics/SVG/1.1/DTD/svg11.dtd">
<svg version="1.1" id="图层_1" xmlns="http://www.w3.org/2000/svg" xmlns:xlink="http://www.w3.org/1999/xlink" x="0px" y="0px"
	 width="100px" height="99.96px" viewBox="91.696 112.79 100 99.96" enable-background="new 91.696 112.79 100 99.96"
	 xml:space="preserve">
<path fill="#EFF3F8" d="M191.696,207.79c0,2.761-2.239,5-5,5h-90c-2.761,0-5-2.239-5-5v-90c0-2.761,2.239-5,5-5h90
	c2.761,0,5,2.239,5,5V207.79z"/>
<circle fill="#FFFFFF" cx="141.696" cy="152.377" r="15.833"/>
<path fill="#FFFFFF" d="M141.696,240.877"/>
<path fill="#FFFFFF" d="M110.01,213.75c-0.287-1.748-0.437-3.543-0.437-5.373c0-17.949,14.382-32.5,32.123-32.5
	s32.123,14.551,32.123,32.5c0,1.831-0.15,3.626-0.437,5.374"/>
</svg>
