<?xml version="1.0" encoding="utf-8"?>
<!-- Generator: Adobe Illustrator 17.0.0, SVG Export Plug-In . SVG Version: 6.00 Build 0)  -->
<!DOCTYPE svg PUBLIC "-//W3C//DTD SVG 1.1//EN" "http://www.w3.org/Graphics/SVG/1.1/DTD/svg11.dtd">
<svg version="1.1" id="图层_1" xmlns="http://www.w3.org/2000/svg" xmlns:xlink="http://www.w3.org/1999/xlink" x="0px" y="0px"
	 width="1049.307px" height="787.536px" viewBox="0 0 1049.307 787.536" enable-background="new 0 0 1049.307 787.536"
	 xml:space="preserve">
<path fill="#3EA7DF" d="M329.946,723.686H222.235l12.199,62.338c28.426-10.517,50.435-15.773,66.016-15.773h549.872l-10.87-62.923
	c-31.94,10.9-54.14,16.358-66.599,16.358H576.22V596.518h136.777l-12.199-61.501c-23.758,13.637-42.643,12.046-56.667,12.046H576.22
	V391.563l-96.658,26.873v11.685c12.071,5.458,18.114,14.605,18.114,27.458v266.107h-67.244H329.946z"/>
<path fill="#3EA7DF" d="M428.92,665.609h0.331v-67.001h0.014v-2.847h0.205v-55.48h-0.205h-0.58l-221.265,0.402
	c-35.463-8.212-113.91-36.521-118.359-127.531c-5.48-117.621,139.257-142.96,203.318-128.945c0,0,39.397-168.012,231.413-171.124
	c191.847-3.115,233.301,150.885,235.182,171.124c0,0,195.617-21.798,206.919,132.06c5.994,81.524-58.75,112.948-121.094,124.417
	l-115.165-5.688l11.647,60.75h81.915l7.933-0.684v0.684h30.147c8.633-1.367,17.277-3.145,25.557-5.469
	c25.208-6.153,49.012-15.587,70.515-28.033c43.365-25.437,89.337-66.191,91.803-131.149
	c5.819-144.136-152.621-180.651-230.185-187.761c0,0-65.756-166.497-298.1-169.505c-187.922,0-276.948,148.443-284.706,169.505
	c0,0-250.807,4.102-232.124,207.316c4.933,37.612,32.219,68.105,60.777,91.628c32.657,26.788,74.212,44.235,110.301,52.625
	c1.121,0.26,2.291,0.599,3.402,0.842h0.003h51.074h15.628v0.298h120.804v77.966"/>
<polygon fill="#1DBF1D" points="975.904,109.357 926.071,109.357 926.071,54.84 889.162,54.84 889.162,109.357 838.333,109.357 
	838.333,145.265 889.162,145.265 889.162,192.415 926.071,192.415 926.071,145.265 975.904,145.265 "/>
<polygon fill="#1DBF1D" points="1057.307,30.896 1028.517,30.896 1028.517,0 1004.69,0 1004.69,30.896 975.904,30.896 
	975.904,54.718 1004.69,54.718 1004.69,81.403 1028.517,81.403 1028.517,54.718 1057.307,54.718 "/>
</svg>
