<?xml version="1.0" encoding="utf-8"?>
<!-- Generator: Adobe Illustrator 17.0.0, SVG Export Plug-In . SVG Version: 6.00 Build 0)  -->
<!DOCTYPE svg PUBLIC "-//W3C//DTD SVG 1.1//EN" "http://www.w3.org/Graphics/SVG/1.1/DTD/svg11.dtd">
<svg version="1.1" id="图层_1" xmlns="http://www.w3.org/2000/svg" xmlns:xlink="http://www.w3.org/1999/xlink" x="0px" y="0px"
	 width="653.875px" height="467.867px" viewBox="0 0 653.875 467.867" enable-background="new 0 0 653.875 467.867"
	 xml:space="preserve">
<g>
	<path fill="#0099FF" d="M204.303,426.915h-67.315l7.624,40.952c17.765-6.909,31.52-10.362,41.258-10.362h343.648l-6.793-41.337
		c-19.961,7.161-33.835,10.746-41.622,10.746H358.214v-83.541h85.48l-7.624-40.402c-14.848,8.959-26.65,7.913-35.414,7.913h-42.442
		V208.731l-60.407,17.654v7.676c7.544,3.586,11.321,9.595,11.321,18.038v174.815h-42.025H204.303z"/>
	<path fill="#0099FF" d="M266.157,388.762h0.207v-44.015h0.009v-1.87h0.128V306.43h-0.128h-0.362l-138.282,0.264
		c-22.163-5.395-71.189-23.992-73.97-83.78c-3.425-77.269,87.03-93.915,127.066-84.709c0,0,24.622-110.373,144.624-112.417
		c119.897-2.046,145.804,99.122,146.979,112.417c0,0,122.253-14.32,129.316,86.755c3.746,53.556-36.717,74.199-75.679,81.734
		l-71.974-3.737l7.279,39.909h51.194l4.958-0.449v0.449h18.84c5.395-0.898,10.798-2.066,15.972-3.593
		c15.754-4.042,30.631-10.24,44.069-18.416c27.102-16.711,55.832-43.483,57.373-86.156c3.637-94.688-95.382-118.676-143.857-123.347
		c0,0-41.095-109.378-186.301-111.354C206.176,0,150.538,97.517,145.69,111.354c0,0-156.745,2.695-145.069,136.194
		c3.083,24.708,20.136,44.741,37.983,60.194c20.409,17.598,46.38,29.06,68.934,34.571c0.701,0.171,1.432,0.393,2.126,0.553h0.002
		h31.919h9.767v0.196h75.498v51.219"/>
</g>
</svg>
