<?xml version="1.0" encoding="utf-8"?>
<!-- Generator: Adobe Illustrator 17.0.0, SVG Export Plug-In . SVG Version: 6.00 Build 0)  -->
<!DOCTYPE svg PUBLIC "-//W3C//DTD SVG 1.1//EN" "http://www.w3.org/Graphics/SVG/1.1/DTD/svg11.dtd">
<svg version="1.1" id="图层_1" xmlns="http://www.w3.org/2000/svg" xmlns:xlink="http://www.w3.org/1999/xlink" x="0px" y="0px"
	 width="100px" height="99.949px" viewBox="0 0 100 99.949" enable-background="new 0 0 100 99.949" xml:space="preserve">
<ellipse fill="#D5EAFB" cx="50" cy="49.957" rx="50" ry="49.992"/>
<circle fill="#BBD6E9" cx="25.841" cy="25.925" r="3.827"/>
<circle fill="#BBD6E9" cx="70.286" cy="41.994" r="2.438"/>
<circle fill="#BBD6E9" cx="93.318" cy="42.63" r="1.039"/>
<circle fill="#BBD6E9" cx="60.564" cy="34.316" r="0.942"/>
<circle fill="#BBD6E9" cx="84.804" cy="77.246" r="2.438"/>
<circle fill="#BBD6E9" cx="11.979" cy="69.615" r="1.749"/>
<rect x="5.83" y="52.707" transform="matrix(0.7072 -0.7071 0.7071 0.7072 -29.0663 35.4626)" fill="#BAD5E8" width="44.898" height="0.229"/>
<rect x="60.659" y="56.623" transform="matrix(0.7072 -0.7071 0.7071 0.7072 -15.7789 75.3767)" fill="#BAD5E8" width="44.898" height="0.229"/>
<rect x="59.916" y="76.213" transform="matrix(0.7072 -0.7071 0.7071 0.7072 -29.8476 80.5882)" fill="#BAD5E8" width="44.898" height="0.229"/>
<path opacity="0.3" fill="#97C1DB" d="M93.241,74.575c0.191,2.671-31.973,47.314-77.936,11.609l55.802-40.799"/>
<rect x="57.751" y="27.134" transform="matrix(0.7072 -0.7071 0.7071 0.7072 0.5398 55.7997)" fill="#BAD5E8" width="19.765" height="0.229"/>
<path fill="#FFFFFF" d="M71.542,84.223c0,0.911-0.726,1.649-1.622,1.649H5.991c-0.896,0-1.622-0.738-1.622-1.649V43.388
	c0-0.911,0.726-1.649,1.622-1.649h63.928c0.896,0,1.622,0.738,1.622,1.649V84.223z"/>
<path opacity="0.6" fill="#BBD6E9" d="M49.356,49.688c0,1.452-1.177,2.629-2.63,2.629H29.184c-1.452,0-2.63-1.177-2.63-2.629l0,0
	c0-1.452,1.177-2.629,2.63-2.629h17.543C48.179,47.058,49.356,48.236,49.356,49.688L49.356,49.688z"/>
<path opacity="0.3" fill="#8ECEEF" d="M34.82,78.941c0,1.054-0.854,1.908-1.908,1.908H17.36c-1.054,0-1.908-0.854-1.908-1.908
	V61.198c0-1.054,0.854-1.908,1.908-1.908h15.551c1.054,0,1.908,0.854,1.908,1.908V78.941z"/>
<circle fill="#FFFFFF" cx="24.879" cy="70.07" r="4.6"/>
<path fill="#FFFFFF" d="M32.503,80.796c0,2.447-3.285,3.667-7.338,3.667s-7.338-1.22-7.338-3.667s3.285-5.193,7.338-5.193
	S32.503,78.349,32.503,80.796z"/>
<rect x="44.634" y="61.051" fill="#DDE7E9" width="16.695" height="2.754"/>
<rect x="44.634" y="67.398" fill="#DDE7E9" width="16.695" height="2.754"/>
<rect x="44.634" y="74.225" fill="#DDE7E9" width="10.73" height="2.754"/>
</svg>
