<?xml version="1.0" standalone="no"?>
<!DOCTYPE svg PUBLIC "-//W3C//DTD SVG 1.1//EN" "http://www.w3.org/Graphics/SVG/1.1/DTD/svg11.dtd" >
<svg xmlns="http://www.w3.org/2000/svg">
<metadata>
Created by FontForge 20120731 at Tue May  2 10:27:55 2017
 By admin
</metadata>
<defs>
<font id="iconfont" horiz-adv-x="1024" >
  <font-face 
    font-family="iconfont"
    font-weight="500"
    font-stretch="normal"
    units-per-em="1024"
    panose-1="2 0 6 3 0 0 0 0 0 0"
    ascent="896"
    descent="-128"
    x-height="792"
    bbox="-57 -2136 1969 962"
    underline-thickness="0"
    underline-position="0"
    unicode-range="U+0078-E9B0"
  />
<missing-glyph 
 />
    <glyph glyph-name=".notdef" 
 />
    <glyph glyph-name=".notdef" 
 />
    <glyph glyph-name=".null" horiz-adv-x="0" 
 />
    <glyph glyph-name="nonmarkingreturn" horiz-adv-x="341" 
 />
    <glyph glyph-name="x" unicode="x" horiz-adv-x="1001" 
d="M281 543q-27 -1 -53 -1h-83q-18 0 -36.5 -6t-32.5 -18.5t-23 -32t-9 -45.5v-76h912v41q0 16 -0.5 30t-0.5 18q0 13 -5 29t-17 29.5t-31.5 22.5t-49.5 9h-133v-97h-438v97zM955 310v-52q0 -23 0.5 -52t0.5 -58t-10.5 -47.5t-26 -30t-33 -16t-31.5 -4.5q-14 -1 -29.5 -0.5
t-29.5 0.5h-32l-45 128h-439l-44 -128h-29h-34q-20 0 -45 1q-25 0 -41 9.5t-25.5 23t-13.5 29.5t-4 30v167h911zM163 247q-12 0 -21 -8.5t-9 -21.5t9 -21.5t21 -8.5q13 0 22 8.5t9 21.5t-9 21.5t-22 8.5zM316 123q-8 -26 -14 -48q-5 -19 -10.5 -37t-7.5 -25t-3 -15t1 -14.5
t9.5 -10.5t21.5 -4h37h67h81h80h64h36q23 0 34 12t2 38q-5 13 -9.5 30.5t-9.5 34.5q-5 19 -11 39h-368zM336 498v228q0 11 2.5 23t10 21.5t20.5 15.5t34 6h188q31 0 51.5 -14.5t20.5 -52.5v-227h-327z" />
    <glyph glyph-name="liebiao" unicode="&#xe760;" 
d="M893 768q29 0 49 -20t20 -49v-52q0 -29 -20 -48.5t-49 -19.5h-760q-29 0 -48.5 19.5t-19.5 48.5v52q0 29 19.5 49t48.5 20h760zM893 447q29 0 49 -19.5t20 -48.5v-52q0 -29 -20 -49t-49 -20h-760q-29 0 -48.5 20t-19.5 49v52q0 29 19.5 48.5t48.5 19.5h760zM893 127
q29 0 49 -20t20 -49v-52q0 -29 -20 -48.5t-49 -19.5h-760q-29 0 -48.5 19.5t-19.5 48.5v52q0 29 19.5 49t48.5 20h760z" />
    <glyph glyph-name="biaoqian1" unicode="&#xe68c;" 
d="M952 386q48 -55 1 -107l-331 -334q-22 -18 -49.5 -16t-43.5 18q-123 124 -221 222l-82 82q-40 40 -71 71.5t-51 51.5t-21 22q-3 4 -10.5 15t-7.5 26v21v41q0 23 0.5 53t0.5 60q1 72 2 160q1 0 1 1q2 13 4.5 25.5t13.5 23.5q10 12 23.5 16t24.5 4h338q2 0 9 -0.5t11 -1.5
q12 -5 22 -14zM220.5 622q27.5 0 47 20t19.5 47.5t-19.5 47t-47 19.5t-47 -19.5t-19.5 -47t19.5 -47.5t47 -20z" />
    <glyph glyph-name="shezhi" unicode="&#xe716;" horiz-adv-x="1000" 
d="M514 497q-74 0 -126.5 -52t-52.5 -126t52.5 -126.5t126.5 -52.5t126 52.5t52 126.5t-52 126t-126 52zM514 220q-41 0 -70 29t-29 70t29 70t70 29t70 -29t29 -70t-29 -70t-70 -29zM899 408q-24 24 -27 32q-2 9 4 45q6 22 5.5 51.5t-14.5 49.5q-10 14 -27.5 23t-29.5 12
t-33 6q-35 4 -42 10q-6 5 -21 37q-9 20 -15.5 31.5t-20 26t-29.5 19.5q-11 4 -23 4q-26 0 -72 -26q-31 -17 -40.5 -17t-40.5 17q-46 26 -72 26q-11 0 -22 -4q-16 -5 -30 -19.5t-20 -26t-15 -31.5q-15 -32 -22 -37q-7 -6 -41 -10q-21 -3 -33.5 -6t-29.5 -12t-27 -23
q-14 -20 -15 -49.5t6 -51.5q6 -36 3 -45q-2 -8 -27 -32q-15 -15 -23.5 -25t-18 -28t-9.5 -36t9.5 -36.5t18 -28t23.5 -25.5q25 -24 27 -32q3 -8 -3 -44q-7 -23 -6 -52t15 -50q10 -14 27 -23t29.5 -11.5t33.5 -5.5q34 -5 41 -10t22 -38q9 -20 15 -31t20 -25.5t30 -20.5
q11 -4 22 -4q26 0 72 26q32 18 41 18t40 -18q46 -26 72 -26q12 0 23 4q16 6 29.5 20.5t20 25.5t15.5 31q15 33 21 38q7 5 42 10q21 3 33 5.5t29.5 11.5t27.5 23q14 21 14.5 50t-5.5 52q-6 36 -4 44q3 8 27 32q16 16 24.5 25.5t17.5 28t9 36.5t-9 36t-17.5 28t-24.5 25z
M843 286q-38 -38 -46 -65q-9 -27 1 -82q6 -35 4 -42q-6 -3 -36 -8q-55 -7 -79 -25q-22 -17 -45 -67q-13 -28 -19 -35q-7 3 -30 15q-49 28 -79 28t-80 -28q-23 -12 -30 -15q-6 7 -18 35q-23 50 -46 67q-23 18 -78 25q-30 5 -36 8q-2 8 4 42q9 55 1 82q-8 26 -47 65
q-27 27 -27 33t27 33q39 38 47 64q8 28 -1 83q-6 34 -4 41q6 4 36 8q55 8 78 25t46 68q12 27 18 34q8 -2 30 -15q50 -28 80 -28t79 28q23 13 30 15q6 -7 19 -34q23 -51 45 -68q24 -17 79 -25q29 -4 36 -8q2 -7 -4 -41q-10 -55 -1 -82q8 -27 46 -65q28 -27 28 -33t-28 -33z
" />
    <glyph glyph-name="banxing" unicode="&#x3438;" horiz-adv-x="1000" 
d="M1000 412l-346 50l-154 314l-154 -314l-346 -50l250 -243l-59 -345l309 163l309 -163l-59 345zM500 64h-1l1 557l109 -221l244 -35l-176 -173l41 -243l-218 115v0z" />
    <glyph glyph-name="fanhui" unicode="&#x3442;" horiz-adv-x="1000" 
d="M362 313l386 -386l-47 -47l-386 386v0l-45 45l444 444l45 -46z" />
    <glyph glyph-name="jia1" unicode="&#xe741;" horiz-adv-x="1000" 
d="M821 345h-278v278q0 18 -12.5 30.5t-30.5 12.5t-30.5 -12.5t-12.5 -30.5v-278h-278q-18 0 -30.5 -12.5t-12.5 -30.5t12.5 -31t30.5 -13h278v-277q0 -18 12.5 -31t30.5 -13t30.5 13t12.5 31v277h278q18 0 30.5 13t12.5 31t-12.5 30.5t-30.5 12.5z" />
    <glyph glyph-name="qingyingxiao" unicode="&#x3432;" horiz-adv-x="1000" 
d="M948 -29q23 -23 23 -55.5t-23 -54.5v0q-22 -23 -54.5 -23t-55.5 23l-220 220q-23 23 -23 55.5t23 54.5v0q22 23 54.5 23t55.5 -23zM571.5 370q27.5 -27 27.5 -66t-28 -66v0q-27 -28 -66 -28t-66 28v0q-27 27 -27 66t27 66t66 27t66.5 -27zM505 -8q-128 0 -220 91.5
t-92 220.5t91.5 220t220.5 91t220.5 -91.5t91.5 -219.5q0 -4 0.5 -9t4.5 -18.5t11.5 -24t23.5 -18.5t38 -8t38 8t23.5 19.5t11.5 23t4 19.5l1 8q0 93 -35.5 178.5t-101.5 152t-151.5 101.5t-179.5 35t-179 -35t-151.5 -101.5t-102 -152t-35.5 -179t35.5 -179t102 -151.5
t152 -101.5t178.5 -35.5q3 0 8.5 0.5t19 4.5t23.5 11.5t18.5 23.5t8.5 38q0 16 -4 28.5t-11 20.5t-15.5 14t-16.5 8.5t-15 4t-11 1.5z" />
    <glyph glyph-name="shuaxin1" unicode="&#xe6e3;" 
d="M702 64q-80 -56 -178 -55q-12 0 -25 1q-2 0 -5.5 0.5t-4.5 1.5q-13 1 -19 2q-1 1 -11 3q-12 3 -19 5l-8 3q-13 4 -21 7q0 1 -4 3q-14 6 -24 11h-1q-38 22 -69 53v1h-1l-18 20q-1 1 -2 2.5t-2 2.5q-66 84 -66 192h70q3 0 4.5 2.5t0.5 4.5l-119 180q-1 3 -4 3t-4 -3
l-119 -180q-2 -2 -0.5 -4.5t4.5 -2.5h71q0 -126 71 -230l0.5 -1t0.5 -2q3 -3 15 -19q0 -1 2 -3.5t3 -3.5q10 -12 23 -26q2 -2 3 -2q40 -41 90 -68l2 -2q13 -7 29 -14q1 -1 3.5 -2t4.5 -1q10 -5 25 -10q10 -3 13 -4q8 -3 23 -6q13 -3 16 -4q1 0 3 -0.5t3 -0.5q5 -1 23 -3
q1 -1 3.5 -1h4.5q22 -3 40 -3q125 0 228 74q17 11 20.5 31t-8 36.5t-31 20t-36.5 -8.5zM928 317q0 125 -71 228q0 1 -0.5 2t-0.5 2q-6 7 -18 23l-1 1l-1 1q-61 75 -149 114q-1 0 -2.5 1t-2.5 1q-12 5 -28 11q-1 0 -3 0.5t-4 1.5t-3 1q-10 3 -26 7q-12 2 -14 3q-1 0 -3 0.5
t-4 0.5q-3 1 -10 2t-9 1q-1 0 -5.5 0.5t-7.5 0.5q-13 2 -31 2h-3h-3h-0.5h-0.5q-126 0 -228 -73q-17 -11 -20.5 -31t8 -36.5t31 -20t36.5 8.5q79 56 176 55q14 0 27 -1q1 0 4 -0.5t4 -0.5q12 -2 21 -4q1 0 10 -2l20 -5q1 -1 3.5 -1.5t3.5 -0.5q12 -5 22 -9q1 0 1.5 -0.5
t1.5 -0.5q67 -29 114 -87h0.5t0.5 -1q69 -85 69 -194h-71q-3 0 -4.5 -3t0.5 -5l119 -180q1 -3 4 -3t4 3l119 180q1 2 -0.5 5t-4.5 3h-70v0z" />
    <glyph glyph-name="guanbi" unicode="&#xe600;" 
d="M512 831q-91 0 -174 -35t-142.5 -95t-95 -143t-35.5 -174t35.5 -174t95 -143t142.5 -95.5t174 -35.5t174 35.5t143 95.5t95.5 143t35.5 174t-35.5 174t-95.5 143t-143 95t-174 35zM512.5 -23q-110.5 0 -204.5 54.5t-148.5 148.5t-54.5 204t54.5 204t148.5 148.5
t204.5 54.5t204 -54.5t148 -148.5t54.5 -204t-54.5 -204t-148 -148.5t-204 -54.5zM648 520q-13 13 -31 13t-32 -13l-73 -74l-73 74q-13 13 -31.5 13t-31.5 -13t-13 -31.5t13 -32.5l73 -74l-69 -70v-0.5v-0.5l-2 -1v0q-11 -14 -10.5 -31.5t13 -30t30 -13.5t30.5 11v0l1 1l1 1
l69 70l69 -70q13 -13 31.5 -13t31.5 13t13 32t-13 32l-69 70l73 74q13 14 13 32.5t-13 31.5z" />
    <glyph glyph-name="xiazai" unicode="&#xe601;" 
d="M399 543q-2 2 -6 5.5t-17.5 10t-28 9.5t-35.5 0t-42 -15q-58 -36 -55 -108q0 -8 1 -8q-6 -1 -16 -4t-35.5 -16t-45 -31t-35.5 -52t-16 -76q1 -31 10.5 -55.5t23 -40t31.5 -27t33 -17t31 -8.5t22 -3.5t9 -0.5l313 1l-145 131l80 -1v159h103l1 -159l78 -1l-117 -130h264
q3 0 8 0.5t21 3.5t30.5 7.5t32.5 15.5t32.5 25.5t26 38t15.5 52.5q3 44 -11.5 79.5t-33.5 54t-44 32.5t-35.5 17t-16.5 4v0q0 3 0.5 8t-0.5 21t-3 32t-8 37.5t-15 40.5t-24 39.5t-34.5 36t-47.5 27t-62 15.5q-51 5 -94 -8.5t-68.5 -36t-43 -47.5t-24.5 -40.5t-7 -17.5z" />
    <glyph glyph-name="zuojiantou1" unicode="&#xe756;" 
d="M944 246q0 -42 -20 -57t-64 -15h-63q-43 0 -91.5 -0.5t-94.5 -0.5h-73q-38 0 -60.5 -7.5t-21.5 -34.5q0 -20 -1 -47.5t-1 -48.5q0 -35 -19 -44.5t-49 13.5q-30 24 -71 56.5t-83.5 66.5t-84 67t-73.5 58q-30 24 -30.5 45.5t27.5 44.5q28 24 67 55.5t81 65t82.5 66.5
t72.5 59q35 28 57.5 21.5t22.5 -42.5v-25q0 -14 0.5 -29t1 -29.5t0.5 -25.5q1 -25 16 -31.5t41 -6.5q29 0 76 0.5t98 0.5t99 0.5t78 0.5q13 0 27 -2t25.5 -9.5t19 -21t7.5 -35.5q0 -27 0.5 -52t0.5 -56v0z" />
    <glyph glyph-name="shijian2" unicode="&#xe76c;" 
d="M512 -212q104 0 199 40.5t163.5 109t109.5 163.5t41 199t-41 199t-109.5 163.5t-163.5 109t-199 40.5t-199 -40.5t-163.5 -109t-109 -163.5t-40.5 -199t40.5 -199t109 -163.5t163.5 -109t199 -40.5zM516.5 660q99.5 0 184 -49t133.5 -133.5t49 -184.5t-49 -184.5
t-133.5 -133.5t-184 -49t-184 49t-134 133.5t-49.5 184.5t49.5 184.5t134 133.5t184 49zM470 214h256q17 0 29.5 12.5t12.5 30.5t-12.5 30.5t-29.5 12.5h-214v213q0 18 -12.5 30.5t-30 12.5t-30 -12.5t-12.5 -30.5v-256q0 -18 12.5 -30.5t30.5 -12.5z" />
    <glyph glyph-name="dianhua" unicode="&#xe602;" 
d="M605 813q-3 0 -6 1q-15 0 -26.5 -9t-14.5 -24q-4 -16 5.5 -30t25.5 -17q64 -13 117 -49t89 -91q74 -112 47 -244q-4 -16 5.5 -30t25.5 -17q3 -1 7 -1q12 -1 23 6q14 10 18 26q22 108 -12.5 210t-115 174.5t-188.5 94.5v0zM675 207q57 -37 96 -77q41 -43 41 -74
q-1 -31 -37 -64q-8 -8 -21 -18t-49 -24t-74 -14q-35 0 -71 11q-38 12 -76 35q-75 44 -135 103t-114 143q-44 66 -73 134t-39.5 121t-13.5 81.5t-3 48.5q0 40 13 75t29.5 56t38 39t32.5 24t19 10q28 12 50 12q11 0 21 -3q28 -8 43 -40q26 -57 43 -141q2 -12 2 -22t-1.5 -17
t-6 -13.5t-8.5 -11t-11.5 -9t-12 -7t-12.5 -6.5l-1 -1q-54 -22 -63 -26q-7 -3 -10.5 -10t-0.5 -14q33 -100 95 -196q61 -94 138 -165q5 -5 13 -5h1q9 1 14 7q17 23 34 38q37 36 69 36q8 0 16.5 -2.5t24.5 -13.5v0zM505 482q-16 4 -25 18t-6 30q3 15 14.5 24t26.5 8q3 0 7 -1
q70 -14 109.5 -74t24.5 -130q-3 -17 -17 -26q-11 -7 -24 -7q-3 1 -6 1q-17 4 -26 17.5t-6 30.5q8 37 -13 69.5t-59 39.5v0zM547 609q-16 3 -25 17t-6 30q3 15 14.5 24t26.5 8h7q117 -25 183 -125t42 -218q-3 -16 -17 -25q-11 -8 -24 -7q-3 0 -7 1q-16 3 -25 17t-6 30
q18 85 -30 157.5t-133 90.5z" />
    <glyph glyph-name="shezhi1" unicode="&#xe7ba;" horiz-adv-x="1064" 
d="M-49 -72zM1041 -72zM45 -41zM403 301q0 55 37.5 92.5t92.5 37.5t92.5 -37.5t37.5 -92.5t-37.5 -93t-92.5 -38t-92 38q-38 38 -38 93zM219 216q11 -39 33 -78l-86 -106l97 -97l106 86q37 -21 79 -34l14 -134h140l15 134q36 11 79 34l105 -86l98 97l-86 106q22 41 33 78
l134 15v140l-134 14q-10 32 -33 79l86 105l-98 99l-105 -87q-49 25 -79 34l-15 134h-140l-14 -134q-37 -11 -79 -34l-106 87l-97 -99l86 -105q-23 -45 -33 -79l-135 -14v-140zM1021 -41z" />
    <glyph glyph-name="liebiao1" unicode="&#xe761;" 
d="M969 728h-625q-24 0 -40.5 -16.5t-16.5 -40.5v-28q0 -24 16.5 -40.5t40.5 -16.5h625q23 0 40 16.5t17 40.5v28q0 24 -17 40.5t-40 16.5zM969 359h-625q-24 0 -40.5 -17t-16.5 -40v-29q0 -23 16.5 -39.5t40.5 -16.5h625q23 0 40 16.5t17 39.5v29q0 23 -17 40t-40 17z
M969 -11h-625q-24 0 -40.5 -16.5t-16.5 -40.5v-28q0 -24 16.5 -40.5t40.5 -16.5h625q23 0 40 16.5t17 40.5v28q0 24 -17 40.5t-40 16.5zM88 728h-29q-23 0 -39.5 -16.5t-16.5 -40.5v-28q0 -24 16.5 -40.5t39.5 -16.5h29q23 0 40 16.5t17 40.5v28q0 24 -17 40.5t-40 16.5z
M88 -11h-29q-23 0 -39.5 -16.5t-16.5 -40.5v-28q0 -24 16.5 -40.5t39.5 -16.5h29q23 0 40 16.5t17 40.5v28q0 24 -17 40.5t-40 16.5zM88 359h-29q-23 0 -39.5 -17t-16.5 -40v-29q0 -23 16.5 -39.5t39.5 -16.5h29q23 0 40 16.5t17 39.5v29q0 23 -17 40t-40 17z" />
    <glyph glyph-name="liebiao2" unicode="&#xe762;" 
d="M432 515h454q30 0 51 21.5t21 51t-21 50.5t-51 21h-454q-30 0 -51 -21t-21 -50.5t21 -51t51 -21.5zM222 659h-86q-30 0 -51 -21t-21 -50.5t21 -51t51 -21.5h86q30 0 51 21.5t21 51t-21 50.5t-51 21zM886 372h-454q-30 0 -51 -21.5t-21 -51t21 -50.5t51 -21h454
q30 0 51 21t21 50.5t-21 51t-51 21.5zM222 372h-86q-30 0 -51 -21.5t-21 -51t21 -50.5t51 -21h86q30 0 51 21t21 50.5t-21 51t-51 21.5zM886 84h-454q-30 0 -51 -21t-21 -51t21 -51t51 -21h454q30 0 51 21t21 51t-21 51t-51 21zM222 84h-86q-30 0 -51 -21t-21 -51t21 -51
t51 -21h86q30 0 51 21t21 51t-21 51t-51 21z" />
    <glyph glyph-name="xiangji" unicode="&#xe72b;" 
d="M745 643h-156q-14 32 -44 52t-67 20h-128q-37 0 -68 -21.5t-44 -55.5q-75 -14 -125 -74t-50 -137v-326q0 -90 63.5 -153t153.5 -63h465q89 0 152.5 63t63.5 153v326q0 89 -63.5 152.5t-152.5 63.5zM269 568l30 2l5 30q2 17 15.5 28.5t30.5 11.5h128q18 0 31 -11t16 -29
l4 -32h216q59 0 100.5 -41.5t41.5 -99.5v-22h-146q-37 58 -97.5 92.5t-131.5 34.5t-131.5 -34.5t-96.5 -92.5h-146v22q0 55 38 96t93 45zM707 262.5q0 -80.5 -57 -137.5t-137.5 -57t-138 57t-57.5 137.5t57.5 137.5t138 57t137.5 -57t57 -137.5zM745 -41h-465
q-59 0 -100.5 41.5t-41.5 100.5v229h114q-9 -33 -9 -67q0 -112 79 -191t190.5 -79t190 79t78.5 191q0 34 -8 67h114v-229q0 -59 -41.5 -100.5t-100.5 -41.5zM399 370q-17 -18 -18.5 -40.5t13.5 -37.5q3 -3 6.5 -4.5t6.5 -2t6 0t6.5 2.5t6 3.5t6.5 5.5t6 6.5t7 8t7.5 7.5
t7.5 7.5t7 7.5t6 6.5t5.5 7t3.5 6.5t2 6.5v6t-2 6.5t-5 6q-15 14 -38 11.5t-40 -20.5z" />
    <glyph glyph-name="weixin2" unicode="&#xe6c1;" 
d="M595 383q-11 0 -20 -9t-9 -20t9 -20t20 -9q16 0 26 8.5t10 20t-10 20.5t-26 9zM755 383q-11 0 -20 -9t-9 -20t9 -20t20 -9q16 0 26 8.5t10 20t-10.5 20.5t-25.5 9zM296 594q-17 0 -30 -10.5t-13 -26t13 -26t30 -10.5t27 10t10 26.5t-10 26.5t-27 10zM500 521q16 0 26 10
t10 26.5t-10 26.5t-26 10q-17 0 -30.5 -10.5t-13.5 -26t13.5 -26t30.5 -10.5zM511 893q-104 0 -198.5 -40.5t-162.5 -109t-108.5 -162.5t-40.5 -198t40.5 -198.5t108.5 -162.5t162.5 -108.5t198.5 -40.5t198.5 40.5t162.5 108.5t108.5 162.5t40.5 198.5t-40.5 198
t-108.5 162.5t-162.5 109t-198.5 40.5zM391 223q-28 0 -102 14l-102 -51l29 88q-116 81 -116 196q0 104 85 176t206 72q107 0 191 -58.5t102 -146.5q-15 2 -28 2q-103 0 -175 -67.5t-72 -162.5q0 -31 9 -61q-15 -1 -27 -1zM820 121l22 -73l-80 44q-58 -15 -87 -15
q-104 0 -176 61.5t-72 149.5t72 149.5t176 61.5q99 0 173 -62t74 -149q0 -91 -102 -167z" />
    <glyph glyph-name="mima1" unicode="&#xe681;" 
d="M791 341l-459 1q0 11 -1.5 39.5t-1 47.5t3 44.5t11.5 46.5t24 38q27 30 65.5 51t78.5 21q62 0 109 -40.5t72 -103.5q7 -19 14.5 -27.5t21.5 -8.5q22 -1 32.5 12.5t8.5 30t-5 29.5q-70 180 -253 180q-63 0 -103 -15.5t-77 -56.5q-18 -20 -31.5 -45.5t-21 -51t-12 -53
t-5.5 -52t-2 -47.5t0 -39l-27 -1q-18 0 -31.5 -13t-13.5 -32v-378q0 -19 13.5 -32t31.5 -13h558q19 0 32.5 13t13.5 32v378q0 19 -13.5 32t-32.5 13v0zM766 -18q0 -15 -10.5 -25.5t-25.5 -10.5h-434q-15 0 -25.5 10.5t-10.5 25.5v252q0 15 10.5 25.5t25.5 10.5h434
q15 0 25.5 -10.5t10.5 -25.5v-252z" />
    <glyph glyph-name="dianhua1" unicode="&#xe652;" 
d="M861 -50q-67 124 -107 172q-36 43 -65 43q-16 0 -30 -8t-36 -26q-11 -8 -20 -13t-16 -7.5l-7 -2.5q-6 7 -32 38t-64 81.5t-51 77.5q-7 15 -8 25t6 20t20 18.5t38 20.5q25 14 38 32t11.5 32.5t-5.5 26.5q-99 150 -147 198q-20 20 -49 20q-24 0 -52.5 -16t-41 -26.5
t-21.5 -19.5q-21 -22 -39 -70t-24 -118.5t17 -147.5q70 -232 301 -439q81 -73 174 -73q44 0 88.5 18t65 33t37 30t22.5 33t4 29t-7 19zM352 644q13 -12 31.5 -36t36.5 -49t34.5 -48t26.5 -38l10 -15q3 -12 -25 -26q-30 -16 -47 -28l-147 212q40 34 65 34q9 0 15 -6z
M509 -104q-221 199 -287 418q-19 60 -15.5 118.5t15.5 97.5t27 62l146 -210q-34 -41 -5 -98q15 -30 54 -82.5t64.5 -83t36.5 -42.5q12 -13 35 -13q8 0 18 2l140 -208q-44 -21 -87 -21q-74 0 -142 60zM809 -96q-18 -17 -42 -32l-139 206q13 7 24 16q30 23 36.5 23t28.5 -26
q29 -35 102 -166q1 0 1 -2.5t-2.5 -7.5t-8.5 -11z" />
    <glyph glyph-name="tag" unicode="&#xe68d;" 
d="M976 245l-25 26v0l-34 36l-420 440l-19 20l-27 -5l-211 -40h-7l-35 -3l-11 -34l-65 -213l-8 -25l16 -20l376 -512l30 -42l42 31l41 30l17 -17l37 35l40 38l63 61l99 74l40 31l-13 17l38 37zM827 190l17 -24l-101 -76v0l-26 -19v0l-125 -93l-45 -33l-376 512l65 213
l227 14l361 -490h-1zM846 190l-1 1v0l-9 12l-360 490l-5 7l-9 -1l-97 -5l95 18l420 -440v-1l4 -4l20 -21zM387 583q-18 13 -41 13q-15 0 -29 -6q-20 -8 -32 -27q-13 -18 -13 -41q0 -15 6 -28q9 -21 27 -33q19 -12 41 -12q15 0 29 5q20 9 32 27q13 19 13 41q0 15 -6 29
q-8 20 -27 32zM400 500q-7 -16 -21 -26q-15 -10 -33 -10q-12 0 -23 4q-15 7 -25 22q-10 14 -10 32q0 12 4 23q7 16 22 26q14 10 32 10q12 0 23 -5q16 -7 26 -21q10 -15 10 -33q0 -12 -5 -22z" />
    <glyph glyph-name="erweima1" unicode="&#xe6d5;" 
d="M152 688h305q9 0 14.5 -6t7.5 -18.5t2.5 -20.5t0 -25.5t-0.5 -22.5v-169q0 -6 0.5 -21.5t0 -24t-1.5 -19.5t-5.5 -17.5t-11.5 -9.5t-21 -3.5t-33.5 0.5t-23.5 1h-162q-6 0 -23 -0.5t-25.5 -0.5t-20.5 2t-18 7.5t-7 15.5v309q6 18 23 23zM194 619v-220h220v223h-219
q-1 0 -1 -3zM562 688h305q20 -7 23 -27v-301q-5 -22 -21 -27q-9 -2 -22 -2.5t-30.5 0.5t-24.5 1h-157q-7 0 -24.5 -1t-31 -1t-21.5 3t-12.5 9.5t-6.5 19t-2 21.5t0.5 25.5t0.5 22.5v158q0 8 -0.5 25.5t-0.5 27t2 21.5t7.5 18t15.5 7zM604 619v-220h220v223h-219q-2 0 -1 -3z
M294 554q23 5 39 -8t17 -35q0 -27 -22 -40t-45 -2q-16 9 -21.5 28t3.5 36.5t29 20.5zM704 554q39 8 51 -26q10 -30 -10 -51q-16 -16 -41 -12q-22 4 -30.5 24t0 40.5t30.5 24.5zM455 -84h-302q-19 6 -24 25v308q6 19 20 23q9 2 22 2.5t30.5 -0.5t24.5 -1h156q7 0 24.5 1
t31 0.5t22.5 -2.5q8 -3 13 -9.5t6.5 -18.5t2 -21t0 -25.5t-0.5 -23.5v-162q0 -6 0.5 -24.5t0 -26.5t-2.5 -20t-8 -18t-16 -7zM194 203v-220h220v223h-219q-1 0 -1 -3zM890 245v-86q-1 -7 -0.5 -46t-0.5 -47h-218v50q-5 2 -33 1.5t-34 -0.5q-2 -17 -1.5 -99.5t0.5 -101.5h-40
q-10 2 -16 8.5t-8 18.5t-2 21.5t0.5 27t0.5 24.5v158q0 7 -1 25.5t-0.5 32t2.5 21.5q2 5 4.5 8.5t7 5.5t8 3.5t11 2t11.5 0.5h13.5h12.5h148v-136h69q0 12 -0.5 68.5t1.5 67.5q17 0 31 -0.5t23.5 -7t10.5 -20.5zM300 140q25 2 40.5 -17.5t6.5 -45.5q-9 -23 -33.5 -27
t-42.5 12.5t-10.5 45t39.5 32.5zM745 -84h-74v41t1 39h73v-80zM890 -4v-52q-4 -21 -24 -28h-52q0 8 -0.5 41t1.5 39h75z" />
    <glyph glyph-name="erweima2" unicode="&#xe706;" 
d="M92 748h359q11 -1 17 -7.5t8.5 -21t3 -24t0 -30t-0.5 -25.5v-196q0 -8 0.5 -26t0.5 -27.5t-2 -22.5t-6.5 -20.5t-13 -11t-25 -4t-39.5 0.5t-28 1h-191q-7 0 -27 -0.5t-30 -0.5t-24 2.5t-21 9t-9 16.5v360q8 21 28 27v0v0zM141 667v-256h259v260h-258q-1 -1 -1 -4v0v0z
M574 748h360q23 -9 27 -32v-350q-5 -25 -25 -31q-11 -3 -26 -3t-35.5 1t-28.5 1h-185q-8 0 -29 -1t-37 -1t-26 3q-9 3 -14.5 11t-7 22t-2 24.5t0 30t0.5 26.5v184q0 8 -0.5 29t-0.5 31.5t2.5 24.5t9 21t17.5 9v0v0zM624 667v-256h259v260h-258q-2 -1 -1 -4v0v0zM259 592
q27 5 46 -10t20 -40q0 -31 -26 -46.5t-53 -2.5q-19 10 -25.5 32t4 42.5t34.5 24.5v0v0zM742 592q44 8 59 -29q13 -32 -9 -58q-18 -22 -50 -16q-26 4 -36 27.5t0 47t36 28.5v0v0zM449 -149h-356q-23 7 -29 29v358q7 21 24 26q11 3 26 3t35.5 -1t29.5 -1h184q8 0 28.5 1.5
t36.5 1t27 -3.5q9 -3 15 -10.5t8 -21.5t2 -24.5t-0.5 -30t-0.5 -26.5v-189q0 -7 0.5 -28t0 -30.5t-3 -23.5t-9.5 -20.5t-18 -8.5v0v0zM141 184v-255h259v259h-258q-1 0 -1 -4v0v0zM961 233v-100q-1 -8 -1 -53v-55h-257v58q-5 2 -38.5 1.5t-40.5 -0.5q-2 -19 -1.5 -115
t-0.5 -118h-47q-11 3 -18 10.5t-9.5 21.5t-2.5 24.5t0.5 30.5t0.5 29v184q0 8 -1 29t-0.5 37t3.5 26q1 5 4 9t9 6.5t10 4t13 2t13 0.5h15.5h14.5h175v-158h81q0 14 -0.5 79.5t1.5 78.5q20 1 37 0.5t28 -8.5t12 -24v0v0zM265 111q30 3 48.5 -20t7.5 -53q-10 -27 -39 -31.5
t-50 15t-12.5 52.5t45.5 37v0v0zM790 -149h-87v47.5t1 45.5h86v-93v0v0zM961 -56v-61q-5 -24 -29 -32h-61q0 9 -0.5 47.5t1.5 45.5h89v0v0zM961 -56z" />
    <glyph glyph-name="app" unicode="&#xe633;" 
d="M832 364h-192v192q0 26 -19 45t-45 19h-448q-26 0 -45 -19t-19 -45v-640q0 -27 19 -45.5t45 -18.5h384q0 -27 18.5 -45.5t45.5 -18.5h256q26 0 45 18.5t19 45.5v448q0 26 -19 45t-45 19zM352 -116q-13 0 -22.5 9.5t-9.5 22.5t9.5 22.5t22.5 9.5t22.5 -9.5t9.5 -22.5
t-9.5 -22.5t-22.5 -9.5zM512 300v-320h-352q-13 0 -22.5 9.5t-9.5 22.5v512q0 13 9.5 22.5t22.5 9.5h384q13 0 22.5 -9.5t9.5 -22.5v-160q-27 0 -45.5 -19t-18.5 -45zM832 -116q0 -13 -9.5 -22.5t-22.5 -9.5h-192q-13 0 -22.5 11t-9.5 24v381q0 13 9.5 22.5t22.5 9.5h192
q13 0 22.5 -9.5t9.5 -22.5v-384z" />
    <glyph glyph-name="bianji2" unicode="&#xe7aa;" 
d="M737 -7h-506q-35 0 -59.5 25t-24.5 60v561q0 35 24.5 59.5t59.5 24.5h393q12 0 20 -8t8 -19.5t-8 -20t-20 -8.5h-393q-11 0 -19.5 -8t-8.5 -20v-561q0 -12 8.5 -20t19.5 -8h506q11 0 19.5 8t8.5 20v449q0 11 8 19.5t19.5 8.5t20 -8.5t8.5 -19.5v-449q0 -35 -25 -60
t-59 -25v0v0zM572 443q-12 0 -20 8t-8 19.5t8 19.5l279 279q8 9 19.5 9t20 -8.5t8.5 -20t-9 -19.5l-279 -279q-8 -8 -19 -8v0zM456 443h-169q-11 0 -19.5 8t-8.5 19.5t8.5 20t19.5 8.5h169q11 0 19.5 -8.5t8.5 -20t-8.5 -19.5t-19.5 -8v0zM624 274h-337q-11 0 -19.5 8.5
t-8.5 20t8.5 19.5t19.5 8h337q12 0 20 -8t8 -19.5t-8 -20t-20 -8.5v0zM624 274z" />
    <glyph glyph-name="icon3" unicode="&#xe714;" 
d="M956 -98l-416 730q-10 17 -28.5 17t-28.5 -17l-416 -730q-9 -16 0.5 -32t27.5 -16h833q18 0 27.5 16t0.5 32zM563 -52h-103v93h103v-93zM563 111h-103v281h103v-281z" />
    <glyph glyph-name="pc" unicode="&#xe6e0;" 
d="M855 704h-689q-20 0 -34.5 -14.5t-14.5 -34.5v-418q0 -21 14.5 -35.5t34.5 -14.5h320v-73h-123q-10 0 -17.5 -7.5t-7.5 -17.5t7.5 -17.5t17.5 -7.5h295q10 0 17.5 7.5t7.5 17.5t-7.5 17.5t-17.5 7.5h-123v73h320q20 0 34.5 14.5t14.5 35.5v418q0 20 -14.5 34.5
t-34.5 14.5zM855 237h-689v418h689v-418z" />
    <glyph glyph-name="yanjing" unicode="&#xe632;" 
d="M1891 -2101q-5 -25 -22 -35q4 0 10 0.5t19.5 7.5t20.5 19zM508.5 600q-153.5 0 -281.5 -81.5t-196 -216.5q68 -135 196 -216.5t281.5 -81.5t281.5 81.5t195 216.5q-67 135 -195 216.5t-281.5 81.5zM743 442q85 -54 140 -140q-55 -86 -140 -140q-107 -68 -234.5 -68
t-235.5 68q-85 54 -139 140q54 86 139 140q5 3 11 7q-14 -39 -14 -81q0 -99 70 -169t168.5 -70t168.5 70t70 169q0 42 -15 81q7 -4 11 -7zM508 397q0 -37 -26 -63t-63 -26t-63.5 26t-26.5 63t26.5 63.5t63.5 26.5t63 -26.5t26 -63.5v0z" />
    <glyph glyph-name="fenxiang1" unicode="&#xe603;" 
d="M770 306q-38 0 -71.5 -16.5t-55.5 -46.5l-249 125q7 21 7 43q0 25 -8 48l248 124q22 -31 56 -48.5t73 -17.5q65 0 111.5 46.5t46.5 112t-46.5 111.5t-112 46t-112 -46t-46.5 -112q0 -9 1 -18l-261 -131q-46 44 -109 44q-65 0 -111.5 -46.5t-46.5 -112t46.5 -112
t112 -46.5t111.5 47l259 -130q-2 -11 -2 -22q0 -65 46.5 -111.5t112 -46.5t112 46.5t46.5 112t-46.5 111.5t-111.5 46v0z" />
    <glyph glyph-name="unie61d" unicode="&#xe604;" 
d="M-57 949v0v0zM743 420q-16 4 -21 10.5t-2 11.5l3 6q2 1 3 3.5t4 9.5t5 14t3 17.5t-0.5 20t-6.5 20.5t-14 20q-16 15 -40.5 19.5t-49.5 0.5t-47 -10t-36 -11l-15 -7q-11 -3 -18 -4t-11 0.5t-6 3t-1.5 7.5t1 10.5t2.5 14t3 15.5q0 13 -1.5 24.5t-7 26t-16 23t-26.5 14
t-41.5 3.5t-57.5 -13q-38 -13 -78 -39t-69 -54.5t-53.5 -54.5t-37.5 -43l-12 -18q-36 -47 -54 -94.5t-17 -71.5v-23q7 -53 33 -95t62 -68t84.5 -44.5t93 -26.5t94.5 -11q81 -7 169 12.5t163.5 66.5t106.5 114q19 38 19.5 72.5t-12 56t-31.5 38t-36 24t-31 9.5v0zM407 77
q-119 -5 -202.5 46.5t-83.5 131.5q0 78 83 135t203 62.5t203 -40t83 -123.5q0 -79 -84.5 -142.5t-201.5 -69.5v0zM375 383q-32 -3 -57.5 -15t-40 -26.5t-24.5 -32t-13.5 -34t-4.5 -30t-1 -21.5l1 -9v-4q0 -3 2 -13t6 -18.5t12.5 -18.5t21.5 -16q72 -36 135 -22t102 64
q15 18 20 46t-2 56t-24.5 51t-52.5 35.5t-80 7.5v0zM335 174q-7 -1 -13 -0.5t-11 2.5t-9.5 4t-8 6t-6.5 7.5t-4.5 9t-1.5 10.5q0 12 6.5 23.5t18 20t26.5 9.5q10 1 19.5 -0.5t16 -5.5t11.5 -9t7 -11.5t2 -14.5q0 -12 -7 -23t-19.5 -18.5t-26.5 -9.5v0zM429 254
q-8 -6 -16 -5.5t-12 7.5l-2 4q-1 3 -1 5v4q0 4 1 6l2 4q1 2 4 3l3 5q9 7 17 5.5t12 -8.5q3 -5 2.5 -10.5t-3.5 -10.5t-7 -9v0zM821 484q6 0 11.5 3.5t9 8.5t4.5 10q1 2 1 4q13 126 -88 143q-30 6 -55 1q-8 0 -13.5 -3.5t-9.5 -10t-4 -12.5q0 -11 8 -19t19 -8q86 20 92 -55
q2 -19 -2 -35q0 -11 8 -19t19 -8v0zM802 796q-49 11 -130 -5q-1 0 -3 -1l-1 -2l-1 -1q-12 -4 -19.5 -14.5t-7.5 -22.5q0 -16 11 -27t26 -11h3q2 0 5.5 1t8 1.5t9.5 2t9 3.5t15 2t27 -2t35 -8.5t38.5 -16.5t39 -27.5t33.5 -40.5q29 -65 11 -126q0 -1 -0.5 -2t-1.5 -5.5
t-2 -8.5l-2.5 -10t-1.5 -10q0 -10 5.5 -17t14 -9.5t19.5 -2.5q31 0 36 37q14 43 15.5 82.5t-5.5 69t-21.5 55.5t-33.5 44.5t-42 33t-44.5 23.5t-44.5 15v0z" />
    <glyph glyph-name="del0" unicode="&#xe6a7;" 
d="M340 99l-29 29l172 172l-172 172l29 29l172 -172l172 172l29 -29l-172 -172l172 -172l-29 -29l-172 172zM959 300q0 -91 -35.5 -173.5t-95.5 -142.5t-142.5 -95.5t-173.5 -35.5t-173.5 35.5t-142.5 95.5t-95.5 142.5t-35.5 173.5t35.5 173.5t95.5 142.5t142.5 95.5
t173.5 35.5t173.5 -35.5t142.5 -95.5t95.5 -142.5t35.5 -173.5zM512 706q-110 0 -203.5 -54.5t-148 -148t-54.5 -203.5t54.5 -203.5t148 -148t203.5 -54.5t203.5 54.5t148 148t54.5 203.5t-54.5 203.5t-148 148t-203.5 54.5z" />
    <glyph glyph-name="cuo" unicode="&#xe6c0;" 
d="M886 -2l-334 333l334 334q9 8 9 20t-8.5 20.5t-20 8.5t-20.5 -9v0l-334 -333l-334 333v0q-8 9 -19.5 9t-20 -8.5t-8.5 -20t8 -20.5v0v0h1l333 -334l-331 -331q-12 -9 -12 -22q0 -12 8.5 -20.5t20.5 -8.5t20 9v-1l334 334l334 -333q8 -9 20 -9t20.5 8.5t8.5 20t-9 20.5v0z
" />
    <glyph glyph-name="circle-arrow-up" unicode="&#xe605;" 
d="M954 384q0 90 -35 172t-94 141t-141 94t-172 35t-172 -35t-141 -94t-94 -141t-35 -172t35 -172t94 -141t141 -94t172 -35t172 35t141 94t94 141t35 172v0zM158 384q0 96 47.5 177.5t129 129t177.5 47.5t177.5 -47.5t129 -129t47.5 -177.5t-47.5 -177.5t-129 -129
t-177.5 -47.5t-177.5 47.5t-129 129t-47.5 177.5v0zM518 415l-190 -160q-7 -6 -16.5 -5t-15.5 8l-26 31q-6 7 -5 16.5t8 15.5l228 192q7 6 17 5q9 1 17 -5l228 -192q7 -6 8 -15.5t-5 -16.5l-26 -31q-6 -7 -15.5 -8t-16.5 5l-190 160v0zM518 415z" />
    <glyph glyph-name="tubiao" unicode="&#xe6a0;" 
d="M431 340l-144 -122v163l162 142l4 -5l147 -171l270 280l80 -98l-361 -377l-3 6zM875 117q17 0 32.5 -7t27 -18t18 -26t6.5 -32q0 -18 -6.5 -33.5t-18 -26.5t-27 -18t-32.5 -7h-728q-18 0 -33 7t-26.5 18t-18 26.5t-6.5 33.5v559q0 17 6.5 32.5t18 27t26.5 18t33 6.5
q17 0 32.5 -6.5t27 -18t18 -27t6.5 -32.5v-476h644v0zM875 117z" />
    <glyph glyph-name="51" unicode="&#xe6a5;" 
d="M619 -148h-504q-21 0 -36 15.5t-15 37.5v580l251 263h370q24 2 39 -13t12 -37v-300v0v-46h-60h-10v46v280h-336v-210h-196v-546h485v-70zM960 140h-160v160h-127v-160h-161v-127h160v-161h128v160h160v128z" />
    <glyph glyph-name="fenxiang2" unicode="&#xe6ca;" 
d="M841 274q-44 0 -82 -19.5t-64 -53.5l-264 124q8 30 8 59t-8 59l264 124q26 -34 64 -53.5t82 -19.5q76 0 129.5 53.5t53.5 129t-53.5 129t-129.5 53.5t-129.5 -53.5t-53.5 -128.5q0 -20 6 -43l-264 -125q-31 44 -78.5 69t-102.5 25q-90 0 -154.5 -64t-64.5 -155t64.5 -155
t154.5 -64q55 0 102.5 25t78.5 69l264 -125q-6 -23 -6 -43q0 -75 53.5 -128.5t129.5 -53.5t129.5 53.5t53.5 129t-53.5 129t-129.5 53.5zM841.5 786q45.5 0 77.5 -32t32 -77.5t-32 -77.5t-77.5 -32t-78 32t-32.5 77.5t32.5 77.5t78 32zM219.5 238q-60.5 0 -103.5 43t-43 103
t43 103t103.5 43t103.5 -43t43 -103t-43 -103t-103.5 -43zM841.5 -18q-45.5 0 -78 32t-32.5 77.5t32.5 77.5t78 32t77.5 -32t32 -77.5t-32 -77.5t-77.5 -32z" />
    <glyph glyph-name="shijian1" unicode="&#xe6d1;" 
d="M512.5 -143q-90.5 0 -172.5 35.5t-141.5 94.5t-94.5 141.5t-35 172.5t35 172.5t94.5 142t141.5 94.5t172.5 35t172.5 -35t141.5 -94.5t94.5 -142t35 -172.5t-35 -172.5t-94.5 -141.5t-141.5 -94.5t-172.5 -35.5zM512.5 678q-102.5 0 -189.5 -50.5t-137 -137t-50 -189
t50 -189.5t137 -137.5t189.5 -50.5t189.5 50.5t137.5 137.5t50.5 189.5t-50.5 189t-137.5 137t-189.5 50.5zM726 244h-224q-10 0 -17 7t-7 17v270q0 10 7 16.5t16 6.5h23q9 0 15.5 -6.5t6.5 -16.5v-226h180q10 0 16.5 -6.5t6.5 -15.5v-23q0 -9 -6.5 -16t-16.5 -7z" />
    <glyph glyph-name="jinggao" unicode="&#xe6fb;" 
d="M951 -4l-393 628q-16 25 -47 25t-47 -25l-393 -628q-17 -27 0 -53q16 -25 47 -25h786q31 0 47 25q17 26 0 53v0zM561 18q0 -9 -5 -15.5t-13 -6.5h-62q-8 0 -13.5 6.5t-5.5 15.5v37q0 10 5.5 16.5t13.5 6.5h62q8 0 13 -6.5t5 -16.5v-37v0zM556 141q-5 -5 -13 -5l-62 1
q-8 0 -13 4t-5 11l-1 105v166q0 6 5.5 10.5t12.5 4.5h63q8 0 13 -4.5t5 -10.5v-165v-107q0 -6 -5 -10v0zM556 141z" />
    <glyph glyph-name="card" unicode="&#xe6a6;" 
d="M344 620v0q-113 -1 -195 -64.5t-84 -147.5h-1v-450h613q114 2 197 62t85 143v0v457h-615zM249 431h331v-95h-331v95zM771 149h-522v94h522v-94z" />
    <glyph glyph-name="guanbi1" unicode="&#xe606;" 
d="M855 636q8 9 8 21t-8 20l-50 50q-8 8 -20 8t-21 -8l-231 -232q-9 -9 -21 -9t-21 9l-231 232q-9 8 -21 8t-20 -8l-50 -50q-8 -8 -8 -20t8 -21l232 -231q9 -9 9 -21t-9 -21l-232 -231q-8 -9 -8 -21t8 -20l50 -50q8 -8 20 -8t21 8l231 232q9 9 21 9t21 -9l231 -232
q9 -8 21 -8t20 8l50 50q8 8 8 20t-8 21l-232 231q-9 9 -9 21t9 21z" />
    <glyph glyph-name="llhomesearch" unicode="&#xe6a4;" 
d="M945 -66l-159 157q81 108 81 242q0 109 -54 201.5t-146.5 146t-201.5 53.5t-201.5 -53.5t-146.5 -146t-54 -202t54 -202t146.5 -146t201.5 -53.5q152 0 266 101l160 -157q12 -11 28 -10.5t27.5 12.5t11 29t-12.5 28zM465 2q-90 0 -166 44t-120.5 120.5t-44.5 166
t44.5 166t120.5 121t166 44.5t166 -44.5t120.5 -121t44.5 -166t-44.5 -166t-120.5 -120.5t-166 -44z" />
    <glyph glyph-name="uilist" unicode="&#xe763;" horiz-adv-x="1025" 
d="M944 221h-569q-33 0 -56 23t-23 56t23 56t56 23h569q33 0 56.5 -23t23.5 -56t-23.5 -56t-56.5 -23zM944 538h-569q-33 0 -56 23.5t-23 56.5t23 56t56 23h569q33 0 56.5 -23t23.5 -56t-23.5 -56.5t-56.5 -23.5zM166 -49l12 -61q1 -1 1 -2q0 -3 -1.5 -4.5t-4 -1.5t-5.5 1
l-59 28l-58 -29q-2 -2 -5 -2t-4 2t-1 4v3l10 60l-48 43q-3 3 -3 5q0 5 7 6l65 10l29 55q2 5 6 5t7 -5l30 -55l65 -8q7 -1 7 -5v0q0 -3 -3 -6zM166 280l12 -61q1 -1 1 -2q0 -3 -1.5 -4.5t-4 -1.5t-5.5 1l-59 28l-58 -29q-2 -2 -5 -2t-4 2t-1 4v3l10 60l-48 43q-3 3 -3 5
q0 5 7 6l65 10l29 55q2 5 6 5t7 -5l30 -55l65 -8q7 -1 7 -5v0q0 -3 -3 -6zM166 597l12 -60q1 -1 1 -2q0 -3 -1.5 -5t-4 -2t-5.5 2l-59 28l-58 -30q-2 -1 -5 -1t-4 1.5t-1 4.5v2l10 61l-48 42q-3 4 -3 6q0 5 7 6l65 9l29 56q2 5 6 5t7 -5l30 -55l65 -8q7 -1 7 -5v0
q0 -3 -3 -6zM375 50h569q33 0 56.5 -23t23.5 -56t-23.5 -56t-56.5 -23h-569q-33 0 -56 23t-23 56t23 56t56 23z" />
    <glyph glyph-name="zhiwei" unicode="&#xe653;" 
d="M339.5 223q-62.5 0 -106.5 44t-44 106.5t44 106.5t106.5 44t106.5 -44t44 -106.5t-44 -106.5t-106.5 -44zM339 489q-48 0 -83 -34.5t-35 -84.5q0 -48 34 -83t84 -35q49 0 84 34.5t35 83.5q0 51 -34 85t-85 34zM531 -17q-16 0 -16 16q0 70 -48.5 118.5t-118 48.5
t-118 -48.5t-48.5 -118.5q0 -16 -16 -16t-16 16q0 82 58.5 140.5t140 58.5t140 -58.5t58.5 -140.5q0 -6 -5 -11t-11 -5zM906 -90q-16 0 -16 16t16 16q34 0 58.5 23.5t24.5 59.5v534q0 34 -24 58.5t-59 24.5h-784q-35 0 -59.5 -23.5t-24.5 -59.5v-537q0 -35 24 -59.5
t60 -24.5h457q16 0 16 -16t-16 -16h-457q-48 0 -82 34t-34 82v537q0 48 34 81.5t82 33.5h784q48 0 81.5 -33.5t33.5 -81.5v-537q0 -46 -34 -79t-81 -33zM800 409h-154q-16 0 -16 16t16 16h154q16 0 16 -16t-16 -16zM890 223h-244q-16 0 -16 16t16 16h244q16 0 16 -16
q0 -7 -5.5 -11.5t-10.5 -4.5zM890 111h-244q-16 0 -16 16t16 16h244q16 0 16 -16q0 -7 -5.5 -11.5t-10.5 -4.5z" />
    <glyph glyph-name="ul-list" unicode="&#xe76d;" 
d="M278 711h717v-52h-717v52zM278 314h717v-51h-717v51zM278 -83h717v-51h-717v51zM140 798l-85 -25v-27l55 15v-180h-53v-25h135v25h-52v217zM121 426q-37 0 -65 -22v-30q29 27 60 27q22 0 33.5 -11t11.5 -31q0 -18 -10 -34.5t-38 -44.5l-69 -69v-26h144v27h-109v0l54 53
q33 33 45 54t12 43q0 29 -18.5 46.5t-50.5 17.5zM133 -86v0q47 14 47 60q0 25 -18.5 41t-48.5 16q-31 0 -54 -13v-29q22 17 47 17q43 0 43 -39q0 -42 -57 -42h-19v-25h20q65 0 65 -45q0 -20 -14.5 -32t-39.5 -12q-30 0 -54 19v-31q20 -13 54 -13q38 0 61 19.5t23 51.5
q0 23 -15 38.5t-40 18.5z" />
    <glyph glyph-name="tupian" unicode="&#xe758;" 
d="M769.5 530q-27.5 0 -47.5 -20t-20 -48t20 -47.5t47.5 -19.5t47.5 19.5t20 47.5t-20 48t-47.5 20zM5 706v-504v-239v-68h68h878h68v68v78v665h-1014zM768 291l-151 -152l-337 338l-241 -241v436h946v-597z" />
    <glyph glyph-name="leixing" unicode="&#xe6fc;" 
d="M816 -56h-203q-21 0 -35.5 15t-14.5 36v202q0 21 14.5 36t35.5 15h203q21 0 35.5 -15t14.5 -36v-202q0 -21 -14.5 -36t-35.5 -15zM816 172q0 10 -7.5 17.5t-18.5 7.5h-151q-11 0 -18.5 -7.5t-7.5 -17.5v-152q0 -10 7.5 -17.5t18.5 -7.5h151q11 0 18.5 7.5t7.5 17.5v152z
M816 349h-203q-21 0 -35.5 15t-14.5 36v202q0 21 14.5 36t35.5 15h203q21 0 35.5 -15t14.5 -36v-202q0 -21 -14.5 -36t-35.5 -15zM816 577q0 10 -7.5 17.5t-18.5 7.5h-151q-11 0 -18.5 -7.5t-7.5 -17.5v-152q0 -11 7.5 -18t18.5 -7h151q11 0 18.5 7t7.5 18v152zM411 -56
h-203q-21 0 -35.5 15t-14.5 36v202q0 21 14.5 36t35.5 15h203q21 0 35.5 -15t14.5 -36v-202q0 -21 -14.5 -36t-35.5 -15zM411 172q0 10 -7.5 17.5t-18.5 7.5h-151q-11 0 -18.5 -7.5t-7.5 -17.5v-152q0 -10 7.5 -17.5t18.5 -7.5h151q11 0 18.5 7.5t7.5 17.5v152v0zM411 349
h-203q-21 0 -35.5 15t-14.5 36v202q0 21 14.5 36t35.5 15h203q21 0 35.5 -15t14.5 -36v-202q0 -21 -14.5 -36t-35.5 -15zM411 577q0 10 -7.5 17.5t-18.5 7.5h-151q-11 0 -18.5 -7.5t-7.5 -17.5v-152q0 -11 7.5 -18t18.5 -7h151q11 0 18.5 7t7.5 18v152v0z" />
    <glyph glyph-name="zuojiantou" unicode="&#xe607;" 
d="M975 383q0 -94 -36.5 -179.5t-98.5 -147.5t-148 -99t-180 -37t-180 37t-148 99t-98.5 147.5t-36.5 180t36.5 180t98.5 147.5t148 99t180 37t180 -37t148 -99t98.5 -147.5t36.5 -180.5v0zM115 383q0 -107 53 -198.5t144.5 -145t199.5 -53.5t199.5 53.5t144.5 145t53 199
t-53 199t-144.5 145t-199.5 53.5t-199.5 -53.5t-144.5 -145t-53 -199.5v0zM457 572l-166 -164q-16 -15 -8 -36q1 0 1.5 -0.5t0.5 -1.5q3 -6 6 -9v0v0l164 -165q10 -9 23.5 -9t23.5 9.5t10 23.5t-10 23l-107 107h316q13 0 23 10t10 23.5t-10 23.5t-23 10h-318l110 108
q10 10 10 24q0 13 -9.5 23t-23.5 10t-23 -10v0zM457 572z" />
    <glyph glyph-name="shuju" unicode="&#xe644;" 
d="M651 13q0 8 -5 14t-12 6h-242q-7 0 -12.5 -6t-5.5 -14v-78h-173v-58h623v58h-173v78v0v0zM902 722h-778q-24 0 -41.5 -17t-17.5 -41v-545q0 -24 17.5 -41t41.5 -17h778q24 0 41 17t17 41v545q0 24 -17 41t-41 17v0v0zM902 139q0 -8 -5.5 -14t-13.5 -6h-740q-8 0 -13.5 6
t-5.5 14v506q0 8 5.5 13.5t13.5 5.5h740q8 0 13.5 -5.5t5.5 -13.5v-506v0v0zM703 176h105v306h-105v-306v0v0zM534 176h106v401h-106v-401v0v0zM219 176h105v118h-105v-118v0v0zM366 176h105v212h-105v-212v0v0zM366 176z" />
    <glyph glyph-name="icon2" unicode="&#xe6fd;" horiz-adv-x="1068" 
d="M834 257v-340h-733v733v0h340v52h-340q-22 0 -37.5 -15t-15.5 -37v-733q0 -22 15.5 -37.5t37.5 -15.5h733q22 0 37 15.5t15 37.5v340h-52v0zM559 405h-379v68h379v-68zM714 216h-536v67h536v-67zM744 23h-564v67h564v-67zM937 568h-20q-15 0 -20 14l-10 25q-7 13 3 24
l15 14q3 4 3 9.5t-3 8.5l-24 24q-4 4 -9.5 4t-9.5 -4l-14 -14q-11 -10 -24 -3l-25 10q-6 2 -10 7.5t-4 12.5v20q0 5 -4 9t-9 4h-34q-6 0 -9.5 -4t-3.5 -9v-20q0 -15 -15 -20l-25 -10q-13 -7 -24 3l-14 14q-4 4 -9.5 4t-8.5 -4l-24 -24q-4 -3 -4 -8.5t4 -9.5l14 -14
q10 -11 3 -24l-10 -25q-4 -14 -19 -14h-20q-6 0 -10 -4t-4 -10v-33q0 -6 4 -10t10 -4h20q15 0 19 -14l10 -25q7 -13 -3 -24l-14 -14q-4 -4 -4 -9.5t4 -8.5l24 -24q3 -4 8.5 -4t9.5 4l14 14q11 10 24 3l25 -10q15 -5 15 -20v-20q0 -5 3.5 -9t9.5 -4h34q5 0 9 4t4 9v20
q0 15 14 20l25 10q13 7 24 -3l14 -14q4 -4 9.5 -4t9.5 4l24 24q3 3 3 8.5t-3 9.5l-15 14q-10 11 -3 24l10 25q2 6 7.5 10t12.5 4h20q5 0 9 4t4 10v33q0 6 -4 10t-9 4v0zM755 463q-31 0 -53 21.5t-22 53t22 53.5t53 22t53 -22t22 -53.5t-22 -53t-53 -21.5v0zM1068 661z" />
    <glyph glyph-name="iconfontjian" unicode="&#xe75e;" 
d="M518 828q-91 0 -173.5 -35.5t-142 -95t-95 -142.5t-35.5 -173.5t35.5 -173t95 -142t142 -95t173.5 -35.5t173.5 35.5t142 95t95 142t35.5 173t-35.5 173.5t-95 142.5t-142 95t-173.5 35.5zM658 327h-280q-23 0 -39 16t-16 39t16 39t39 16h280q23 0 39 -16t16 -39t-16 -39
t-39 -16z" />
    <glyph glyph-name="zhuanyi" unicode="&#xe608;" 
d="M881 396l-323 287v-144q-8 -1 -23 -3t-56.5 -11.5t-79 -21t-80.5 -32.5t-71 -46q-84 -75 -102 -271l-3 -45l17 2q3 6 8 15.5t24 34t41.5 43.5t61.5 34t82 15q106 -1 181 -1v-143l323 287v0zM881 396z" />
    <glyph glyph-name="qq" unicode="&#xe6c6;" 
d="M512 896q-104 0 -199 -40.5t-163.5 -109t-109 -163.5t-40.5 -199t40.5 -199t109 -163.5t163.5 -109t199 -40.5t199 40.5t163.5 109t109 163.5t40.5 199t-40.5 199t-109 163.5t-163.5 109t-199 40.5zM794 224q-10 -8 -25.5 0.5t-32.5 31.5q-14 -38 -36 -71q51 -18 51 -47
q0 -25 -39 -43t-94 -18q-66 0 -106 24q-39 -24 -106 -24q-55 0 -93.5 18t-38.5 43q0 29 50 47q-21 32 -36 71q-16 -23 -31.5 -31.5t-25.5 -0.5q-14 13 -9.5 52.5t24.5 81.5q9 20 20 35q3 124 74.5 211t171.5 87v0q101 0 172.5 -87t74.5 -211q10 -15 19 -35
q20 -42 24.5 -81.5t-8.5 -52.5z" />
    <glyph glyph-name="quxiao1" unicode="&#xe6c8;" 
d="M513.5 -207q-103.5 0 -197.5 40t-162 108t-108 162t-40 197t40 197t108 162t162 108.5t197.5 40.5t197.5 -40.5t161.5 -108.5t108 -162t40.5 -197t-40.5 -197t-108 -162t-161.5 -108t-197.5 -40zM746 448q7 7 7 17t-7 18l-52 51q-7 8 -17 8t-17 -8l-147 -146l-147 146
q-7 8 -17 8t-17 -8l-52 -51q-7 -8 -7 -18t7 -17l147 -147l-147 -146q-7 -8 -7 -18t7 -17l52 -52q7 -7 17 -7t17 7l147 147l147 -147q7 -7 17 -7t17 7l52 52q7 7 7 17t-7 18l-147 146z" />
    <glyph glyph-name="gth" unicode="&#xe715;" 
d="M478 221h68v269h-68v-269zM512 658q-101 0 -186 -49.5t-134.5 -134.5t-49.5 -186t49.5 -186t134.5 -134.5t186 -49.5t186 49.5t134.5 134.5t49.5 186t-49.5 186t-134.5 134.5t-186 49.5zM512 -15q-126 0 -214.5 88.5t-88.5 214.5t88.5 214.5t214.5 88.5t214.5 -88.5
t88.5 -214.5t-88.5 -214.5t-214.5 -88.5zM478 86h68v67h-68v-67z" />
    <glyph glyph-name="icicyichu" unicode="&#xe609;" 
d="M510.5 844q-94.5 0 -180.5 -37t-148 -99t-99 -148t-37 -180.5t37 -180.5t99 -148t148 -98.5t180.5 -36.5t180.5 36.5t148 98.5t99 148t37 180.5t-37 180.5t-99 148t-148 99t-180.5 37zM764 138l-43 -39l-210 237l-211 -237l-43 39l215 242l-215 241l43 39l211 -237
l210 237l43 -39l-215 -241z" />
    <glyph glyph-name="iconcg" unicode="&#xe72a;" 
d="M512 748q-91 0 -173.5 -35.5t-142 -95.5t-95 -142.5t-35.5 -173t35.5 -173t95 -142t142 -95t173 -35.5t173.5 35.5t142.5 95t95 142t35.5 173t-35.5 173t-95 142.5t-142.5 95.5t-173 35.5v0zM789 426l-333 -333q-6 -6 -14.5 -6t-14.5 6l-44 44v0l-144 144q-6 6 -6 14.5
t6 14.5l44 44q6 6 14.5 6t14.5 -6l130 -130l274 275q6 6 14.5 6t14.5 -6l44 -44q6 -6 6 -14.5t-6 -14.5v0zM789 426z" />
    <glyph glyph-name="yijianfankui" unicode="&#xe65e;" 
d="M905 714h-786q-23 0 -39.5 -16t-16.5 -39v-532q0 -23 16.5 -39t39.5 -16h105v-159q0 -18 17 -25q5 -2 10 -2q30 0 38 8l163 178h453q23 0 39.5 16t16.5 39v532q0 23 -16.5 39t-39.5 16zM897 135h-482l-130 -145v145h-156v516h768v-516zM251 362h523q11 0 19.5 10
t8.5 21.5t-8.5 21.5t-19.5 10h-523q-11 0 -19.5 -10t-8.5 -21.5t8.5 -21.5t19.5 -10zM252 491h523q11 0 19.5 10t8.5 22t-8.5 21.5t-19.5 9.5h-523q-11 0 -19.5 -9.5t-8.5 -21.5t8.5 -22t19.5 -10zM612 297h-360q-11 0 -19.5 -11t-8.5 -23q0 -11 8.5 -20t20.5 -9h361
q12 0 19 9t7 21t-8 22.5t-20 10.5z" />
    <glyph glyph-name="shoucang2" unicode="&#xe729;" 
d="M510 753q15 0 21 -12l97 -198q9 -18 29 -21l224 -33q14 -2 18 -14t-5 -20l-164 -161q-14 -14 -11 -33l38 -222q2 -13 -9 -20q-6 -4 -13 -4q-6 0 -12 3l-195 102q-9 5 -18.5 5t-18.5 -5l-195 -102q-5 -3 -11 -3q-8 0 -14 4q-11 7 -9 20l38 222q3 19 -11 33l-164 161
q-9 8 -5 20t18 14l224 33q20 3 29 21l98 198q6 12 21 12zM510 791q-18 0 -33.5 -9t-23.5 -25l-97 -197l-223 -33q-18 -2 -31 -13t-19 -27q-12 -34 14 -60l164 -160l-38 -222q-6 -36 26 -58q16 -10 36 -10q15 0 30 7l195 103l195 -103q14 -7 30 -7q19 0 35 10q32 22 26 58
l-38 222l164 160q26 26 14 60q-5 16 -18.5 27t-30.5 13l-224 33l-97 197q-8 16 -23 25t-33 9v0z" />
    <glyph glyph-name="yuanquan1" unicode="&#xe712;" 
d="M940 710zM982 610zM524 547q97 0 166 -69t69 -166t-69 -165.5t-166 -68.5t-165.5 68.5t-68.5 165.5t68.5 166t165.5 69zM524 690q-102 0 -189 -50.5t-138 -137.5t-51 -189.5t51 -189.5t138 -138t189.5 -51t189.5 51t137.5 138t50.5 189.5t-50.5 189.5t-137.5 137.5
t-190 50.5v0z" />
    <glyph glyph-name="icon15" unicode="&#xe60a;" 
d="M953 203l-152 136q-7 7 -16 3t-9 -13v-74q-32 0 -61 -6.5t-60.5 -26t-54 -50.5t-37 -84t-14.5 -122q13 46 29 76.5t33 48.5t44 27t52.5 11.5t68.5 2.5v-75q0 -10 9 -13q3 -1 5 -1q6 0 11 4l152 136q10 10 0 20zM201 40q-28 0 -48 20t-20 49v584q0 29 20 49t48 20h217
q9 -2 14 -8t7.5 -17t2.5 -18.5v-23.5v-105q0 -14 10.5 -24t24.5 -10h103q17 0 26 -1t20.5 -3.5t17 -10t5.5 -20.5v-172q32 14 69 19v188q0 25 -21 52t-73 78q-20 20 -26 25.5t-25 25.5q-51 52 -78 73t-53 21h-241q-56 0 -96.5 -40.5t-40.5 -97.5v-584q0 -57 40.5 -97.5
t96.5 -40.5h345q-27 31 -42 69h-303v0z" />
    <glyph glyph-name="bianji" unicode="&#xe636;" 
d="M250 30l202 86l-124 122zM848 505l-127 131l-370 -365l133 -137zM953 662q-34 37 -73 66q-17 12 -34 12t-26 -6l-8 -6l-66 -66l134 -133q56 57 73 76q8 9 8 23t-4 24zM811 -38q0 -7 -5 -12t-12 -5h-622q-7 0 -12 5t-5 12v617q0 7 5 12t12 5h396l82 87h-563q-8 0 -14 -6
t-6 -14v-786q0 -8 6 -14t14 -6h792q8 0 14 6t6 14v562l-88 -82v-395z" />
    <glyph glyph-name="shouji1" unicode="&#xe7c8;" 
d="M704 731h-384q-12 0 -20 -8t-8 -19v-640q0 -11 8 -19t20 -8h384q12 0 20 8t8 19v640q0 11 -8 19t-20 8zM489 694h46q7 0 11.5 -4.5t4.5 -11t-4.5 -11t-11.5 -4.5h-46q-7 0 -11.5 4.5t-4.5 11t4.5 11t11.5 4.5zM543 70h-62v62h62v-62zM685 177q0 -11 -8 -19t-20 -8h-290
q-12 0 -20 8t-8 19v441q0 11 8 19t20 8h290q12 0 20 -8t8 -19v-441z" />
    <glyph glyph-name="shijian4" unicode="&#xe7be;" 
d="M513 -202q-102 0 -195 39.5t-160 106.5t-107 160t-40 195.5t40 195.5t107 160t160 107t195 40t195 -40t160 -107t107 -160t40 -195.5t-40 -195.5t-107 -160t-160 -106.5t-195 -39.5zM513 745q-91 0 -173 -35.5t-142 -95t-95 -142t-35 -173t35 -173t95 -142t142 -95
t173 -35.5t173 35.5t142 95t95 142t35 173t-35 173t-95 142t-142 95t-173 35.5zM770 174q-5 -11 -16.5 -15.5t-22.5 0.5l-236 79q-18 9 -17 29l-0.5 1t-0.5 2v326q0 12 9 21t21 9t20.5 -9t8.5 -21v-310l220 -73q11 -5 15 -16.5t-1 -22.5z" />
    <glyph glyph-name="guanbi2" unicode="&#xe60b;" 
d="M512 890q-102 0 -195.5 -40t-161 -107.5t-107.5 -161t-40 -195.5t40 -195.5t107.5 -161t161 -107.5t195.5 -40t195.5 40t161 107.5t107.5 161t40 195.5t-40 195.5t-107.5 161t-161 107.5t-195.5 40zM650 354l131 -131q14 -14 14 -33.5t-14 -33.5l-37 -37
q-14 -14 -33.5 -14t-33.5 14l-131 131q-13 13 -33 13t-33 -13l-131 -131q-14 -14 -33.5 -14t-33.5 14l-37 37q-14 14 -14 33.5t14 33.5l131 131q13 13 13 33t-13 33l-131 131q-14 14 -14 33.5t14 33.5l37 37q14 14 33.5 14t33.5 -14l131 -131q13 -13 33 -13t33 13l131 131
q14 14 33.5 14t33.5 -14l37 -37q14 -14 14 -33.5t-14 -33.5l-131 -131q-13 -13 -13 -33t13 -33z" />
    <glyph glyph-name="share" unicode="&#xe72c;" 
d="M750 168v1v0v0v-1zM725 181v0v0v0v0zM789 136q-57 0 -94 -43l-246 155q16 34 16 71q0 39 -17 75l229 130q31 -45 85 -45q43 0 73.5 30.5t30.5 74t-30.5 74t-73.5 30.5t-73.5 -30.5t-30.5 -74.5q0 -8 1 -17l-235 -134q-53 64 -136 64q-73 0 -124.5 -51.5t-51.5 -125
t51.5 -125t124.5 -51.5q41 0 77 17.5t61 48.5l246 -155q-7 -20 -7 -42q0 -51 36 -87.5t87.5 -36.5t87.5 36.5t36 87.5t-36 87.5t-87 36.5zM761.5 642q24.5 0 42 -17t17.5 -41.5t-17.5 -42t-42 -17.5t-41.5 17.5t-17 42t17 41.5t41.5 17zM287 185q-55 0 -94 39t-39 94t39 94
t94 39t93.5 -39t38.5 -94t-38.5 -94t-93.5 -39zM788.5 -66q-32.5 0 -55.5 23t-23 55.5t23 55t55.5 22.5t55.5 -22.5t23 -55t-23 -55.5t-55.5 -23z" />
    <glyph glyph-name="iconyuangong" unicode="&#xe654;" 
d="M96 494h847v-64h-847v64zM941 -116h-858q-21 0 -35.5 14t-14.5 34v671q0 20 14.5 34t35.5 14h350v-65h-336v-637h830v637h-333v65h347q21 0 35.5 -14t14.5 -34v-671q0 -20 -14.5 -34t-35.5 -14zM577 430h-130q-14 0 -23 9.5t-9 22.5v268q0 14 9 23t23 9h130q14 0 23 -9
t9 -23v-268q0 -13 -9 -22.5t-23 -9.5zM478 494h68v205h-68v-205zM836 338q0 11 -7.5 18.5t-18.5 7.5h-209q-11 0 -18.5 -7.5t-7.5 -18.5t7.5 -18.5t18.5 -7.5h209q11 0 18.5 7.5t7.5 18.5v0zM601 237q-11 0 -18.5 -7.5t-7.5 -18.5t7.5 -18.5t18.5 -7.5h157q11 0 18.5 7.5
t7.5 18.5t-7.5 18.5t-18.5 7.5h-157v0zM836 82q0 11 -7.5 18.5t-18.5 7.5h-209q-11 0 -18.5 -7.5t-7.5 -18t7.5 -18.5t18.5 -8h209q11 0 18.5 8t7.5 18v0zM512 45h-320v8q0 33 46 66.5t74 39.5q1 3 2 11q-20 21 -26 47q-8 4 -13 16q-8 22 4 36v0q-6 50 16 74q19 22 57 22
t57 -22q22 -24 16 -74v0q12 -14 4 -36q-5 -12 -13 -16q-6 -26 -26 -47q1 -8 2 -11q28 -6 74 -39.5t46 -66.5v1v-9z" />
    <glyph glyph-name="fullscreen-exit" unicode="&#xe7a8;" 
d="M733 197h178q11 0 18.5 7.5t7.5 18t-7.5 18t-18.5 7.5v0h-240v0h-0.5h-0.5q-4 0 -6 -1h-1.5t-1 -0.5t-2.5 -1.5l-1 -0.5l-1 -0.5q-2 -1 -4 -3t-3 -4l-0.5 -1l-0.5 -1l-1 -2v0q0 -1 -0.5 -1.5l-0.5 -0.5q-1 -3 -1 -6v-1.5v-0.5v0v-237v0q0 -10 7.5 -17.5t18 -7.5t18 7.5
t7.5 17.5v175l225 -225q8 -8 18.5 -8t18 7.5t7.5 18.5t-8 18zM647 545l0.5 -0.5t0.5 -1.5q0 -3 1 -6v-0.5t0.5 -1t1.5 -2.5l0.5 -1l0.5 -1q1 -2 3 -4t4 -3l1 -0.5l1 -0.5l2 -1v0q1 -1 1.5 -1h0.5q3 -1 6 -1h0.5h1.5v0h237q10 0 17.5 7.5t7.5 18t-7.5 18t-18.5 7.5h-174
l225 225q7 7 7 18t-7.5 18.5t-18 7.5t-17.5 -8l-225 -225v178q0 11 -7.5 18.5t-18 7.5t-18.5 -7.5t-7 -18.5h-1v-240v0zM380 223v0.5v1.5q0 3 -1 6l-0.5 0.5t-0.5 1.5v0l-1 2l-0.5 1l-0.5 1q-2 2 -3.5 4t-3.5 3q-1 0 -1.5 0.5l-0.5 0.5q-2 1 -2.5 1.5t-1.5 0.5h-1q-3 1 -6 1
h-0.5h-0.5h-1h-239q-11 0 -18.5 -7.5t-7.5 -18t7.5 -18t18.5 -7.5h178l-226 -225q-7 -7 -7 -18t7.5 -18.5t18 -7.5t18.5 8l225 225v-174q0 -11 7.5 -18.5t18 -7.5t18 7.5t7.5 17.5v0v237v0zM289 569h-174q-11 0 -18.5 -7.5t-7.5 -18t7.5 -18t17.5 -7.5v0h237v0h1.5h0.5
q3 0 6 1l0.5 0.5t1.5 0.5v0l2 1l1 0.5l1 0.5q2 2 4 3.5t3 3.5q0 1 0.5 1.5l0.5 0.5q1 2 1.5 2.5t0.5 1.5v1q1 3 1 6v0.5t1 0.5v0v240h-1q1 11 -7 18.5t-18.5 7.5t-18 -7.5t-7.5 -18.5v-178l-225 225q-7 8 -17.5 8t-18 -7.5t-7.5 -18t7 -18.5z" />
    <glyph glyph-name="wenjianxiazai" unicode="&#xe787;" 
d="M250 538l-51 -52l255 -255q24 -24 58 -24t58 24l255 255l-51 52l-225 -225v583h-74v-583zM933 823h-275v-73h256v-768h-804v768h256v73h-275q-22 0 -38 -16t-16 -39v-805q0 -22 16 -38t38 -16h842q22 0 38 16t16 38v805q0 23 -16 39t-38 16z" />
    <glyph glyph-name="icon" unicode="&#xe6c2;" 
d="M512 848q-94 0 -180 -36.5t-148.5 -99t-99 -148.5t-36.5 -180t36.5 -180t99 -148.5t148.5 -99t180 -36.5t180 36.5t148.5 99t99 148.5t36.5 180t-36.5 180t-99 148.5t-148.5 99t-180 36.5zM620 587q3 -2 9 -5t22.5 -15t30.5 -26t28.5 -38t21.5 -51l-112 -97v232zM606 593
v-150l-161 159q79 28 156 -6zM428 597l104 -106h-224q0 7 22 34q39 49 98 72zM299 476h152l-162 -152q-3 9 -6.5 24.5t-1.5 55.5t18 72zM402 183q-2 1 -7 3t-19 11.5t-27 22t-29 36.5t-28 52l110 99v-224zM418 174v142l155 -153q-50 -12 -84 -8t-52.5 11t-18.5 8zM588 168
l-98 100h219q-1 -3 -3.5 -8t-12 -19t-22 -26t-35 -25.5t-48.5 -21.5zM721 287h-148l162 151q3 0 7 -23q9 -53 -21 -128z" />
    <glyph glyph-name="icon1" unicode="&#xe675;" 
d="M235 930h428q51 0 86.5 -35t35.5 -85v-229l-92 -48v277q0 12 -8.5 21t-21.5 9h-379l2 -28l3 -39q4 -18 -1 -36q-6 -25 -27 -44q-20 -16 -44 -22q-18 -5 -35 -2l-85 11v-595q0 -12 9 -21v0q9 -8 21 -8h334l-12 -91h-322q-50 0 -86 35v0v1q-36 35 -36 84v648l15 13l196 184
h19zM917 481l-3 24l-64 35l-82 -43l186 -99q-31 -136 -120 -236l44 -37q105 120 137 282l4 20l-19 10zM750 465q-138 -162 -202 -368q30 -16 85.5 -45.5t74.5 -39.5q131 173 202 367q-18 10 -74 40t-86 46v0zM530 65l-22 -160l11 -6l-12 -49l23 -12l34 37l8 -4l119 109z
M189 374v-46h115v46h-115zM189 501v-46h422v46h-422zM189 623v-46h422v46h-422zM378 742v-46h233v46h-233zM127 722l21 -3l41 -5h1q7 -2 16 0q13 4 24 13t14 21q2 7 0 16l-1 2v2l-3 40l-1 18l-112 -104v0z" />
    <glyph glyph-name="tupian1" unicode="&#xe759;" horiz-adv-x="1025" 
d="M928 716h-832q-40 0 -68 -28t-28 -68v-640q0 -40 28 -68t68 -28h832q40 0 68 28t28 68v640q0 40 -28 68t-68 28zM944 78l-201 268q-1 2 -4 5.5t-16.5 9.5t-32.5 6q-20 0 -35 -5t-20 -10l-5 -6l-176 -271q-10 -18 -33 -18q-11 0 -20 4.5t-13 8.5l-3 5l-93 106q-2 3 -7 8.5
t-19.5 14t-27.5 8.5q-9 0 -18 -3.5t-15.5 -8.5t-12 -10.5l-8.5 -8.5l-2 -4l-102 -126v552q0 13 9.5 22.5t22.5 9.5h800q13 0 22.5 -9.5t9.5 -22.5v-525v0zM464 428q0 -47 -33 -80t-80 -33t-80.5 33t-33.5 80t33.5 80t80.5 33t80 -33t33 -80z" />
    <glyph glyph-name="wenben" unicode="&#xe76e;" 
d="M761 -212h-498v42q33 12 66 21q33 8 73 15v870h-189l-79 -209h-37q-5 29 -8 66q-3 34 -5 76q-2 36 -4 76q-1 38 -1 67h866q0 -28 -1.5 -66t-3.5 -75q-1 -7 -2.5 -34.5t-2.5 -41.5q-2 -38 -6 -68h-40l-78 209h-187v-871q42 -8 72 -14q34 -8 65 -21v-42z" />
    <glyph glyph-name="left" unicode="&#xe60c;" 
d="M511 834q91 0 174 -35.5t143 -96t95.5 -143.5t35.5 -174t-35.5 -174t-95.5 -143t-143 -96t-174 -36t-174 36t-143.5 96t-96 143t-35.5 174t35.5 174t96 143.5t143.5 96t174 35.5v0zM298 366l2 -4l1 -1q2 -5 5 -8l1 -1v0l2 -2l262 -253q15 -14 35 -14q21 0 36 15
q14 15 13.5 35.5t-14.5 35.5l-226 217l226 215q15 14 16 35t-14 36q-14 15 -36 15q-20 0 -34 -13l-265 -251q-11 -11 -14 -26.5t4 -30.5v0zM298 366z" />
    <glyph glyph-name="iconfontyingyong" unicode="&#xe744;" horiz-adv-x="1026" 
d="M423 735q16 0 27.5 -11t11.5 -28v-158q0 -16 -11.5 -27.5t-27.5 -11.5h-158q-16 0 -27.5 11.5t-11.5 27.5v158q0 17 11.5 28t27.5 11h158zM423 420q16 0 27.5 -11.5t11.5 -27.5v-159q0 -16 -11.5 -27.5t-27.5 -11.5h-158q-16 0 -27.5 11.5t-11.5 27.5v159q0 16 11.5 27.5
t27.5 11.5h158zM739 420q16 0 27.5 -11.5t11.5 -27.5v-159q0 -16 -11.5 -27.5t-27.5 -11.5h-158q-16 0 -28 11.5t-12 27.5v159q0 16 12 27.5t28 11.5h158zM827 666q12 -13 12 -30t-12 -29l-118 -117q-12 -13 -29 -13t-30 13l-117 117q-12 12 -12 29t12 30l117 117
q13 12 30 12t29 -12z" />
    <glyph glyph-name="huiche" unicode="&#xe788;" 
d="M832 342q0 -39 -18.5 -76t-49.5 -66t-72.5 -46t-87.5 -17h-28q-17 0 -36 -0.5t-38 -0.5h-34q-22 0 -34 -4t-12 -17v-23v-24q0 -17 -10.5 -22t-26.5 7q-18 12 -40.5 28t-46.5 33.5t-47.5 34t-41.5 30.5q-17 12 -17 22.5t15 22.5q16 12 37.5 28.5t44.5 33.5t46 33.5
t40 30.5q19 14 32 11t13 -21v-13.5t0.5 -16t1 -16.5t0.5 -14q0 -13 8 -16t23 -3q33 1 74 1h75q17 0 34 7t30.5 18.5t22.5 27t9 32.5v47q0 26 -0.5 51t-0.5 44v23q0 15 10 24.5t24.5 14.5t32 5t32.5 -4.5t25 -13.5t10 -22v-18v-32q0 -17 0.5 -36.5t0.5 -37.5v-31v-19v0z" />
    <glyph glyph-name="shoucang" unicode="&#xe713;" 
d="M669 570q61 0 106.5 -39t53.5 -98q11 -81 -46 -141q-86 -88 -256 -259q-4 -3 -9 -3t-8 3q-134 134 -248 249q-45 46 -54 100q-9 50 12.5 95.5t64.5 70.5q38 22 81 22q64 0 111 -44q18 -17 38 -17q16 0 30 8q7 5 20 15q25 16 35 22q33 16 69 16zM669 624q-48 0 -92 -23
q-10 -4 -19.5 -10.5t-22 -15.5t-19.5 -13v0q-2 1 -3 2q-63 59 -147 59q-57 0 -107 -29q-58 -33 -86.5 -94t-16.5 -127q12 -71 69 -128q115 -116 247 -249q19 -19 46 -19t46 19q170 170 257 259q75 78 60 185q-11 80 -72.5 132t-139.5 52v0z" />
    <glyph glyph-name="tishixinxi" unicode="&#xe6fe;" 
d="M513.5 -149.5q91.5 0.5 174.5 36.5t143 96t95.5 143.5t35 175t-36.5 174.5t-96 143t-143.5 95.5t-175 35t-174.5 -36t-143 -96t-95.5 -144t-35 -175t36.5 -174.5t96 -143t143.5 -95.5t175 -35zM454 515q0 13 9.5 22.5t22.5 9.5h50q14 0 23 -9t9 -23l1 -221
q0 -14 -9.5 -23.5t-22.5 -9.5h-50q-13 0 -22.5 9.5t-9.5 22.5zM455 135q0 13 9.5 22.5t22.5 9.5h51q13 0 22.5 -9t9.5 -23v-50q0 -13 -9.5 -22.5t-22.5 -9.5h-50q-14 0 -23 9t-9 23z" />
    <glyph glyph-name="warn" unicode="&#xe60d;" 
d="M511 6q-104 0 -191.5 51t-138.5 138.5t-51 191.5t51 191.5t138.5 138.5t191.5 51t191.5 -51t138.5 -138.5t51 -191.5t-51 -191.5t-138.5 -138.5t-191.5 -51v0zM569 573q0 21 -18 37t-40.5 16t-40.5 -16t-18 -37l15 -221q0 -23 11 -38t32 -15t32.5 15t11.5 38l15 221v0z
M512 271q-25 0 -42.5 -17.5t-17.5 -42.5t17.5 -42.5t42.5 -17.5t42.5 17.5t17.5 42.5t-17.5 42.5t-42.5 17.5v0z" />
    <glyph glyph-name="qqkongjian" unicode="&#xe63a;" 
d="M962 407.5q-6 18.5 -26 21.5l-270 42l-121 259q-8 18 -29 18v0q-20 0 -29 -18l-122 -258l-270 -41q-19 -3 -25.5 -21.5t7.5 -32.5l196 -202l-47 -285q-3 -20 13.5 -31.5t33.5 -1.5l242 133l241 -134q8 -4 16 -4v0q14 0 23 9.5t9 22.5q0 6 -2 11l-44 279l196 201
q14 14 8 32.5zM639 119h-247v30l183 225h-167v37h225v-34l-185 -223h191v-35z" />
    <glyph glyph-name="mingpian" unicode="&#xe663;" 
d="M931 684h-838q-38 0 -65 -27t-27 -65v-584q0 -38 27 -64.5t65 -26.5h33q5 -1 10 -1t10 1q2 -1 5 -1t6 1l367 -1h5h12h5h2q4 0 10 1h373q38 0 65 26.5t27 64.5v584q0 38 -27 65t-65 27zM556 -19h-15l-1 -1h-1l-392 1h-1h-1v0h-17q-8 0 -14 1q5 65 54 119q65 71 174 71
q110 0 176 -71q49 -54 54 -118q-7 -2 -16 -2zM959 8q0 -11 -8 -19t-20 -8h-294q-2 38 -18 79q-19 47 -54 84q-85 92 -222.5 92t-221.5 -92q-37 -40 -56 -91v539q0 12 8 20t20 8h838q12 0 20 -8t8 -20v-584zM344.5 556q-62.5 0 -107 -44.5t-44.5 -107.5t44.5 -107.5
t107 -44.5t107 44.5t44.5 107.5t-44.5 107.5t-107 44.5zM344.5 316q-36.5 0 -62 26t-25.5 62t25.5 62t62 26t62 -26t25.5 -62t-25.5 -62t-62 -26zM577 557h318v-64h-318v64zM577 429h318v-64h-318v64zM577 301h193v-64h-193v64z" />
    <glyph glyph-name="shanchu" unicode="&#xe789;" 
d="M920 -30l-317 317l317 317l-90 90l-317 -317l-317 317l-90 -90l317 -317l-317 -317l90 -90l317 317l317 -317z" />
    <glyph glyph-name="dianhua3" unicode="&#xe78a;" 
d="M952 50l-3 5l-10 11q-10 13 -38 36q-41 34 -75 56l-45 29l-20 10q-15 7 -34 1q-14 -5 -21 -17l-18 -27q-2 -4 -5 -9t-11.5 -22l-13.5 -27q-12 -21 -34 -30.5t-50 2.5q-96 54 -161 116q-94 89 -126 161q-8 12 -2 35t26 32q12 6 32 14t29 13q7 5 14 9t17 10q1 0 4 3l4 4
l2 2q18 17 9 40l-2 8q-14 30 -34 65q-16 27 -39 57q-15 20 -30.5 34.5t-23.5 18.5l-9 5l-12 6q-22 9 -46 -1q-15 -6 -29.5 -14.5t-20.5 -13.5t-25 -20q-42 -34 -65.5 -77t-17.5 -81q9 -67 82.5 -186t171 -211.5t222.5 -162t196 -78.5q74 -9 158 68q36 34 52 68q7 13 8.5 28
t-6.5 30v0zM952 50z" />
    <glyph glyph-name="duigou1" unicode="&#xe765;" 
d="M356 321l95 -184q3 8 9 22t26.5 55t43.5 80.5t59 92t73.5 96t86.5 85.5t99 68q-2 -19 -6.5 -63t-6 -67.5t4 -60.5t19.5 -70q-49 -11 -132 -89.5t-155 -171t-110 -160.5q-74 92 -156.5 159t-145.5 90z" />
    <glyph glyph-name="ccvisa" unicode="&#xe68e;" horiz-adv-x="1317" 
d="M1129 246h-79q8 21 37 103l2 5q2 5 5.5 14.5t5.5 14.5l7 -31zM282 389l-33 169q-7 31 -43 31h-153l-2 -8q178 -45 231 -192zM384 589l-93 -251l-9 51q-15 40 -49 74t-75 51l77 -292h100l150 367h-101zM463 222h95l60 367h-95zM962 946q-40 16 -85 16q-71 0 -115.5 -34
t-44.5 -87q-1 -59 82 -100q28 -13 39 -23.5t11 -22.5q0 -17 -17.5 -26t-39.5 -9q-49 0 -89 19l-13 6l-13 -82q42 -20 106 -20q74 0 119 34t46 92q0 60 -80 99q-28 14 -40.5 24t-12.5 22t14 21.5t40 9.5q40 1 71 -14l9 -4zM1191 876h-73q-37 0 -49 -31l-141 -336h99l20 55
h122q2 -13 11 -55h88zM1418 692v-731q0 -30 -22 -52t-51 -22h-1171q-29 0 -51 22t-22 52v731q0 30 22 51.5t51 21.5h1171q29 0 51 -21.5t22 -51.5z" />
    <glyph glyph-name="store-preview" unicode="&#xe660;" horiz-adv-x="1029" 
d="M551 -21q-216 0 -431 183l44 52q226 -191 442 -163q55 7 109 29.5t91.5 47t72.5 56t51.5 50t29.5 35.5v90q-194 210 -418 210h-1q-68 0 -137 -20t-119.5 -46.5t-100 -62t-73 -56.5t-42.5 -41v-40h-69v67l9 10q11 13 30 31.5t74.5 62.5t113.5 77t143.5 60t169.5 27h2
q260 0 478 -243l9 -10v-139l-6 -9q-8 -10 -21 -27t-52.5 -56t-83.5 -70.5t-112 -61.5t-138 -39q-33 -4 -65 -4v0zM530 130q-67 0 -114 47.5t-47 114t47 114t114 47.5t114 -47.5t47 -114t-47 -114t-114 -47.5zM530 384q-38 0 -65 -27t-27 -65.5t27 -65.5t65 -27t65 27
t27 65.5t-27 65.5t-65 27z" />
    <glyph glyph-name="dianhua2" unicode="&#xe6ff;" 
d="M753 -212q-80 0 -211 81q-125 77 -244 193v0l-24 24q-116 119 -193 244q-81 131 -81 211q0 78 72 175q14 18 30 36t45 39t52 21q30 0 72 -44q31 -32 67 -83q34 -49 57 -92q27 -51 27 -76q0 -33 -34 -56q-15 -10 -49 -25q-30 -13 -37 -19q6 -24 42 -77q43 -63 93 -115
q52 -50 115 -93q53 -36 77 -42q6 7 19 37q15 34 25 49q23 34 56 34q25 0 76 -27q43 -23 92 -57q51 -36 83 -67q44 -42 44 -72q0 -23 -21 -52t-39 -45t-36 -30q-97 -72 -175 -72v0zM341 105q114 -111 232 -185q117 -72 180 -72q57 0 135 59q34 24 56 50q16 18 19 29
q-5 11 -32 36t-74 58q-43 30 -81 50q-33 17 -47 19q-4 -2 -9.5 -11.5t-16.5 -34.5q-13 -31 -21 -43q-20 -31 -49 -31h-1q-38 1 -114 53q-68 46 -123 100l-1 1q-54 55 -100 123q-52 76 -53 114q-1 29 30 50q13 8 44 21q25 11 34.5 16.5t11.5 9.5q-2 14 -19 47q-20 38 -50 81
q-33 47 -58 74t-36 32q-11 -3 -29 -19q-26 -22 -50 -56q-59 -78 -59 -135q0 -63 72 -180q74 -118 185 -232l24 -24v0zM341 105z" />
    <glyph glyph-name="iconfontcolor39" unicode="&#xe77c;" horiz-adv-x="1025" 
d="M2 667q-1 -5 -2 -14t1 -39.5t9.5 -64t27.5 -85t51 -105t84 -122.5t123 -138l3.5 -3.5l3.5 -3.5l3.5 -3.5l3.5 -3.5q69 -70 137.5 -123t123 -83.5t104.5 -51t86 -28t63 -9.5t40.5 -1t13.5 2q12 2 29 7.5t24 12.5q52 43 84 96q10 15 9 34.5t-7.5 37t-18.5 36.5t-23 33
t-23 26q-34 33 -67.5 52t-56.5 20t-39 -8q-6 -4 -21.5 -20t-28.5 -29.5l-13 -13.5q-19 -18 -44 -19q-4 0 -11 1t-31 9.5t-51 23.5t-70.5 48.5t-90.5 78.5q-45 47 -78.5 90t-48.5 71.5t-23.5 50t-9.5 32.5l-1 10q1 25 19 44l63 63q17 21 -3.5 67.5t-60.5 95.5
q-26 31 -48.5 46.5t-55.5 22.5q-31 6 -73 -15t-73.5 -57.5t-32.5 -70.5z" />
    <glyph glyph-name="xiazai1" unicode="&#xe60e;" 
d="M829 2h-639q-53 0 -90.5 37.5t-37.5 90.5v159q0 14 9.5 23t22.5 9h64q13 0 22.5 -9t9.5 -23v-95q0 -27 19 -45.5t45 -18.5h511q27 0 45.5 18.5t18.5 45.5v95q0 14 9.5 23t22.5 9h64q13 0 22.5 -9t9.5 -23v-159q0 -53 -37.5 -90.5t-90.5 -37.5v0zM250 628q10 10 23.5 10
t23.5 -10l149 -148v321q0 13 9 22.5t23 9.5h64q13 0 22 -9.5t9 -22.5v-321l149 148q10 10 24 10t23 -10l47 -46q10 -10 10 -23.5t-10 -23.5l-264 -264q-1 -1 -6.5 -4t-16 -6.5t-19.5 -3.5t-20 3.5t-16.5 6.5t-6.5 4l-264 264q-10 10 -10 23.5t10 23.5l47 46v0z" />
    <glyph glyph-name="shangchuan" unicode="&#xe60f;" 
d="M470 80v148h-94l145 176l144 -175l-95 -1v-148h223q5 0 14.5 1t34 9t45.5 22t42 45t30 73q-1 28 -1 38.5t-2 23t-2.5 13.5t-6 14.5t-8.5 21.5q-18 25 -25 33.5t-26.5 22.5t-49.5 28q24 108 -46 193q-38 46 -96 62t-103 7q-45 -8 -88 -37.5t-69 -88.5q-24 25 -54 38.5
t-79 12.5q-30 -1 -67.5 -26t-53.5 -73q-16 -39 -3 -91q-39 -12 -75 -50q-21 -23 -34.5 -66t-2.5 -87q28 -116 150 -139h253z" />
    <glyph glyph-name="shuaxin" unicode="&#xe6d7;" 
d="M189 299q0 7 0.5 20.5t10.5 50.5t27 70.5t55.5 73.5t90.5 68q15 6 36.5 12.5t62 10t81.5 -1t92.5 -27t96.5 -61.5q-14 -16 -36.5 -47t-38.5 -54l-15 -23h306v309l-121 -87q-5 5 -13.5 13t-39.5 29t-66 37t-91 30t-115 14q-79 1 -159 -33t-143 -92t-103.5 -140.5
t-42.5 -171.5h125zM834 304q0 -8 -1 -21t-10.5 -50t-27 -71t-55.5 -74t-91 -67q-14 -7 -36 -13t-62 -10t-81 1t-92.5 27t-96.5 62q13 16 36 47t38 53l16 23h-307v-309l121 88q5 -5 14 -13t39.5 -29t65.5 -37.5t91 -30t116 -14.5q79 -1 158.5 33.5t142.5 92.5t103.5 140.5
t42.5 171.5h-124z" />
    <glyph glyph-name="biaoqian" unicode="&#xe655;" 
d="M582 -91q-22 0 -38 16l-454 454q-22 20 -22 55l-18 395q0 8 6 14v0q6 6 14 6l395 -19q35 1 55 -21l454 -454q16 -16 16 -38t-16 -38l-33 -33q-5 -5 -12.5 -5t-13 5.5t-5.5 13t5 12.5l33 33q5 5 5 12t-5 12l-455 454q0 1 -1 1q-9 10 -27 10h-1l-376 17l17 -376v-1
q0 -18 10 -28h1l454 -455q5 -5 12 -5t12 5l219 219q4 4 11.5 9.5t29.5 14t46 8.5q7 0 12.5 -5.5t5.5 -13t-5.5 -13t-12.5 -5.5q-18 0 -33.5 -5.5t-20.5 -9.5t-7 -6v0l-219 -219q-16 -16 -38 -16zM225 606q-29 0 -49 20t-20 49t20 49t49 20t49.5 -20t20.5 -49t-20.5 -49
t-49.5 -20zM225.5 707q-13.5 0 -23 -9.5t-9.5 -23t9.5 -23t23 -9.5t23 9.5t9.5 23t-9.5 23t-23 9.5z" />
    <glyph glyph-name="zuojiantou2" unicode="&#xe610;" 
d="M599 612q-10 10 -24 10t-24 -10l-206 -205q-10 -10 -10 -24.5t10 -24.5l206 -205q10 -10 24 -10t24.5 10t10.5 24t-11 24l-181 181l181 182q10 10 10 24t-10 24v0zM514 843q-94 0 -179.5 -36.5t-147 -98t-98 -147t-36.5 -179t36.5 -179t98 -147t147 -98t179 -36.5
t179 36.5t147 98t98 147t36.5 179t-36.5 179t-98 147t-147 98t-178.5 36.5v0zM509 -27q-111 0 -205 55t-149 149t-55 205.5t55 205.5t149 148.5t205.5 54.5t205.5 -54.5t149 -148.5t55 -205.5t-55 -205.5t-149 -149t-206 -55v0zM509 -21z" />
    <glyph glyph-name="customize" unicode="&#xe7a5;" 
d="M762 304q-1 -8 2 -17t6 -13l3 -5q22 -18 22 -47q0 -26 -18 -44t-43.5 -18t-43.5 18t-18 44q0 29 22 47q2 2 4.5 5t5.5 12t1.5 17.5t-6.5 14.5t-9 7l-4 2h-147v80q25 -12 52 -12q48 0 82 34t34 81.5t-34 81.5t-82 34q-27 0 -52 -12v93q0 17 -12 29t-29 12h-393
q-17 0 -29 -12t-12 -29v-421v-13v-380q0 -17 12 -29t29 -12h422h12h381q17 0 29 12t12 29v434h-179q-17 -5 -20 -23v0zM486 694v-131q-1 0 0 -1.5t2.5 -4t4 -5t7.5 -4.5t11 -3q9 -1 17 1.5t12 5.5l3 3q19 22 48 22q27 0 47 -17.5t20 -49t-20 -49t-47 -17.5q-29 0 -48 22
q-1 1 -4 3t-11.5 4t-16.5 1t-14.5 -5.5t-8.5 -8.5l-2 -3v-130h-81q12 24 12 51q0 48 -33.5 82t-81.5 34t-82 -34t-34 -82q0 -27 12 -51h-80v367h368v0zM486 -94h-368v367h105v0h26l1.5 0.5t4 2t5 4.5t4.5 7.5t3 10.5q1 9 -1 17.5t-6 11.5l-3 4q-22 18 -22 47q0 28 17.5 47.5
t49 19.5t49.5 -19.5t18 -47.5q0 -29 -23 -47q-1 -2 -3 -5t-4 -11.5t-0.5 -16.5t5.5 -14t8 -8l4 -2l32 -1v0h98v-95q-25 12 -52 12q-48 0 -79.5 -31.5t-31.5 -79.5t31.5 -79t79.5 -31q27 0 52 12v-75v0zM832 273h75v-367h-368v100v0v24q-4 18 -23 20q-8 1 -16.5 -1.5
t-13.5 -5.5l-4 -3q-19 -22 -48 -22q-26 0 -44 18t-18 43.5t18 43.5t44 18q29 0 48 -23q1 -1 4.5 -3.5t12.5 -5.5t17.5 -1.5t14 6.5t7.5 9l1 4v141v5h96q-12 -24 -12 -51q0 -48 31.5 -79.5t79 -31.5t79 31.5t31.5 79.5q0 27 -12 51v0z" />
    <glyph glyph-name="tanhao" unicode="&#xe611;" 
d="M852 812h-682q-35 0 -60.5 -25t-25.5 -60v-683q0 -35 25.5 -60t60.5 -25h682q36 0 61 25t25 60v683q0 35 -25 60t-61 25zM546 86q0 -14 -10 -24t-24.5 -10t-24.5 10t-10 24v30q0 14 10 24t24.5 10t24.5 -10t10 -24v-30zM571 644l-26 -404q-1 -14 -11.5 -23t-24.5 -8
q-12 1 -21 9.5t-10 21.5l-26 404q-2 24 14.5 43t41 20.5t43.5 -15t20 -41.5q1 -4 0 -7z" />
    <glyph glyph-name="password" unicode="&#xe7c9;" 
d="M744 494h-62q0 75 -50 125.5t-123 50.5t-123 -50.5t-50 -125.5h-62q0 92 70 165t165 73t165 -73t70 -165v0zM823 392q0 26 -18.5 44t-43.5 18h-496q-26 0 -44 -18t-18 -44v-294q0 -25 18 -43.5t44 -18.5h496q25 0 43.5 18.5t18.5 43.5v294v0zM562 162q0 -19 -13.5 -32.5
t-33.5 -13.5h-6q-20 0 -33.5 13.5t-13.5 32.5v126q0 20 13.5 33.5t33.5 13.5h6q19 0 33 -13.5t14 -33.5v-126zM562 162z" />
    <glyph glyph-name="bianji1" unicode="&#xe717;" 
d="M784 525l-126 126l63 63q15 15 37.5 15t37.5 -15l51 -51q15 -15 15 -37.5t-15 -37.5zM418 159l-126 126l342 340l126 -126zM191 56l77 205l124 -125zM756 13q14 0 23 -9.5t9 -22.5t-9 -22.5t-23 -9.5h-564q-13 0 -22 9.5t-9 22.5t9 22.5t22 9.5h564z" />
    <glyph glyph-name="gengduo" unicode="&#xe77b;" 
d="M694 411h-542v-54h542v54v0zM694 88h-542v-53h542v53v0zM874 733h-722v-53h722v53zM874 733z" />
    <glyph glyph-name="address" unicode="&#xe683;" 
d="M678 429q0 69 -48.5 117.5t-117.5 48.5t-117.5 -48.5t-48.5 -117.5t48.5 -117.5t117.5 -48.5t117.5 48.5t48.5 117.5zM383 428.5q0 53.5 37.5 91.5t91 38t91.5 -38t38 -91.5t-38 -91t-91.5 -37.5t-91 37.5t-37.5 91zM807 429q0 122 -86.5 208.5t-208.5 86.5t-208.5 -86.5
t-86.5 -208.5q0 -46 30.5 -115.5t73.5 -137.5t86.5 -128t74 -98t30.5 -37q12 14 32 39t70.5 94.5t89.5 131.5t71 133.5t32 117.5zM512 687q107 0 182.5 -75.5t75.5 -182.5q0 -40 -26.5 -102t-64.5 -122.5t-76 -115t-64.5 -88l-26.5 -33.5q-11 13 -28.5 35.5t-62 85
t-78.5 117.5t-61.5 119t-27.5 104q0 107 75.5 182.5t182.5 75.5zM642 31q-11 -16 -23 -32q60 -7 96 -20t36 -29q0 -23 -70 -39.5t-169 -16.5t-169.5 16.5t-70.5 39.5q0 16 36.5 29t96.5 20l-24 32q-66 -12 -106 -34t-40 -47q0 -39 81 -66t195.5 -27t195.5 27t81 66
q0 25 -39.5 47t-106.5 34z" />
    <glyph glyph-name="jia" unicode="&#xe612;" 
d="M128 448h767v-127h-767v127zM448 768h127v-767h-127v767z" />
    <glyph glyph-name="shanchu1" unicode="&#xe7ab;" 
d="M883 646h-66v-589q0 -30 -18 -48t-47 -18h-480q-29 0 -47 18t-18 48v589h-66q-13 0 -17.5 5.5t-4.5 15.5q0 22 22 22h306v44q0 15 14 29.5t29 14.5h44q14 0 28.5 -15.5t14.5 -28.5v-44h306q13 0 17.5 -5.5t4.5 -16.5q0 -10 -4.5 -15.5t-17.5 -5.5v0zM512 733
q-9 0 -15.5 -6.5t-6.5 -15.5t6.5 -15.5t15.5 -6.5t15.5 6.5t6.5 15.5t-6.5 15.5t-15.5 6.5v0zM774 646h-524v-567q0 -15 14.5 -29.5t29.5 -14.5h436q15 0 29.5 14.5t14.5 29.5v567v0zM577 558h44v-436h-44v436zM403 558h44v-436h-44v436zM403 558z" />
    <glyph glyph-name="tengxunweibo" unicode="&#xe63c;" 
d="M285.5 676q-109.5 0 -187.5 -76.5t-78 -184.5q0 -63 30 -119q4 -8 13 -11t18 1q9 5 12 14t-2 17q-24 46 -24 98q0 89 64 152t154 63t154 -63t64 -151.5t-64 -151.5t-154 -63q-25 0 -49 5q-9 2 -17.5 -3t-10.5 -14q-2 -10 3 -18t15 -10q29 -6 59 -6q110 0 187.5 76.5
t77.5 184t-77.5 184t-187 76.5zM239 349q23 -15 50 -15q37 0 62.5 25t25.5 61t-25.5 61.5t-62 25.5t-62.5 -25.5t-26 -61.5q0 -18 8 -34q-32 -34 -60 -74q-50 -74 -81.5 -185.5t-19.5 -245.5q1 -11 8 -23t15 -12h3q8 0 15 14t6 25q-21 225 92 392q40 60 52 72zM777 485
q-29 -2 -57 11q-46 22 -63 69.5t5 92.5q22 46 70 63t94 -5t63 -69.5t-5 -92.5q-6 -13 -14.5 -23.5t2.5 -18.5t19 2q9 12 18 28q26 56 5.5 113.5t-76.5 84t-115 6t-85.5 -76t-5.5 -113t77 -84.5q32 -15 69 -14q5 0 9 4t3.5 9.5t-4.5 9.5t-9 4zM995 384q-119 44 -178 141
q-12 19 -21 42q14 7 20 21q9 18 2 37.5t-25.5 28t-38 2t-28 -25t-1.5 -37.5t25 -28q11 -5 20 -5q10 -25 23 -48q64 -106 193 -152q11 -4 16 6l0.5 0.5l0.5 0.5q4 13 -8 17z" />
    <glyph glyph-name="shijian3" unicode="&#xe76f;" 
d="M512 701q-109 0 -201 -54t-146 -146t-54 -201t54 -201t146 -146t201 -54t201 54t146 146t54 201t-54 201t-146 146t-201 54zM804 227h-293q-15 0 -25.5 10.5t-10.5 25.5v332q0 15 10.5 26t25.5 11t26 -11t11 -26v-295h256q15 0 25.5 -10.5t10.5 -26t-10.5 -26
t-25.5 -10.5zM512 812q-104 0 -199 -40.5t-163.5 -109t-109 -163.5t-40.5 -199t40.5 -199t109 -163.5t163.5 -109t199 -40.5t199 40.5t163.5 109t109 163.5t40.5 199t-40.5 199t-109 163.5t-163.5 109t-199 40.5zM512 -140q-90 0 -171.5 34.5t-140.5 93.5t-93.5 140.5
t-34.5 171.5t34.5 171.5t93.5 140.5t140.5 93.5t171.5 34.5t171.5 -34.5t140.5 -93.5t93.5 -140.5t34.5 -171.5t-34.5 -171.5t-93.5 -140.5t-140.5 -93.5t-171.5 -34.5z" />
    <glyph glyph-name="4shenfenzheng" unicode="&#xe776;" 
d="M320.5 331q-41.5 0 -71.5 30t-30 71.5t30 71t71.5 29.5t71 -29.5t29.5 -71t-29.5 -71.5t-71 -30zM320.5 498q-27.5 0 -47 -19t-19.5 -46.5t19.5 -47t47 -19.5t46.5 19.5t19 47t-19 46.5t-46.5 19zM467 219h-35q0 47 -32.5 79.5t-79 32.5t-79 -32.5t-32.5 -79.5h-36
q0 61 43.5 104t104 43t103.5 -43t43 -104zM896 -49h-768q-23 0 -39.5 16.5t-16.5 39.5v584q0 23 16.5 39t39.5 16h768q23 0 39.5 -16t16.5 -39v-584q0 -23 -16.5 -39.5t-39.5 -16.5zM128 611q-9 0 -15 -6t-6 -14v-584q0 -8 6 -14t15 -6h768q9 0 15 6t6 14v584q0 8 -6 14
t-15 6h-768v0zM561 471h276v-35h-276v35zM561 303h276v-35h-276v35zM173 142h664v-35h-664v35v0z" />
    <glyph glyph-name="rili" unicode="&#xe702;" 
d="M877 -147h-711q-25 0 -43 17.5t-18 43.5v687q0 26 18 44t43 18l70 -2v-29q0 -39 27 -69.5t64 -30.5t64.5 32.5t27.5 71.5v27h221v-27q0 -39 27.5 -71.5t64.5 -32.5t64 32.5t27 71.5v27h54q26 0 43.5 -16t17.5 -41v-692q0 -26 -18 -43.5t-43 -17.5zM864 466h-686v-540h686
v540zM350 295h-98v98h98v-98zM350 148h-98v97h98v-97zM350 1h-98v97h98v-97zM497 295h-98v98h98v-98zM497 148h-98v97h98v-97zM497 1h-98v97h98v-97zM645 295h-99v98h99v-98zM645 148h-99v97h99v-97zM645 1h-99v97h99v-97zM792 295h-99v98h99v-98zM792 148h-99v97h99v-97z
M792 1h-99v97h99v-97zM731 575q-25 0 -42.5 17.5t-17.5 42.5v51q0 25 17.5 42.5t42.5 17.5t42.5 -17.5t17.5 -42.5v-51q0 -25 -17.5 -42.5t-42.5 -17.5zM326 575q-25 0 -42.5 17.5t-17.5 42.5v51q0 25 17.5 42.5t42.5 17.5t43 -17.5t18 -42.5v-51q0 -25 -18 -42.5t-43 -17.5
z" />
    <glyph glyph-name="tupian2" unicode="&#xe75a;" 
d="M959 566.5q0 14.5 -8.5 26t-21.5 16.5v47q13 4 21.5 16t8.5 27t-9.5 27.5t-24.5 16.5q-7 2 -15 2q-29 0 -42 -27h-48q-13 27 -42.5 27t-41.5 -27h-49q-12 27 -41.5 27t-41.5 -27h-49q-12 27 -42 27t-42 -27h-49q-12 27 -41.5 27t-41.5 -27h-49q-12 27 -41.5 27t-42.5 -27
h-48q-4 10 -13 17q-13 10 -29 10q-19 0 -32.5 -13.5t-13.5 -32.5q0 -22 17 -36q7 -5 15 -8v-45q-14 -5 -22.5 -17t-8.5 -27t8.5 -27t22.5 -16v-46q-14 -4 -22.5 -16t-8.5 -27t8.5 -27t22.5 -17v-45q-14 -5 -22.5 -17t-8.5 -27t8.5 -26.5t22.5 -16.5v-46q-14 -4 -22.5 -16
t-8.5 -27t8.5 -27t22.5 -17v-45q-14 -5 -22.5 -16.5t-8.5 -26.5t8.5 -27t22.5 -17v-45q-8 -3 -15 -9q-17 -13 -17 -36q0 -19 13.5 -32t32.5 -13q16 0 29 10q9 7 13 17h48q13 -27 42.5 -27t41.5 27h49q12 -27 41.5 -27t41.5 27h49q12 -27 42 -27t42 27h49q12 -27 41.5 -27
t41.5 27h49q12 -27 41.5 -27t42.5 27h48q13 -27 42 -27q8 0 15 2q15 4 24.5 16.5t9.5 27.5t-8.5 26.5t-21.5 16.5v47q13 5 21.5 16.5t8.5 26t-8.5 26.5t-21.5 17v46q13 5 21.5 16.5t8.5 26.5t-8.5 26.5t-21.5 16.5v46q13 5 21.5 17t8.5 26.5t-8.5 26t-21.5 16.5v47
q13 5 21.5 16.5t8.5 26t-8.5 26.5t-21.5 17v46q13 5 21.5 17t8.5 26.5zM848 -34h-665v671h665v-671zM475 444.5q0 -34.5 -24.5 -59t-59 -24.5t-58.5 24.5t-24 59t24 58.5t58.5 24t59 -24t24.5 -58.5zM797 19h-565l176 166l60 -43l191 251l138 -187v-187z" />
    <glyph glyph-name="jinlingyingcaiwangtubiao42" unicode="&#xe7b3;" 
d="M441 66q0 -27 19 -46t46 -19t46 19t19 46t-19 45.5t-46 18.5t-46 -18.5t-19 -45.5zM441 283q0 -27 19 -45.5t46 -18.5t46 18.5t19 45.5t-19 46t-46 19t-46 -19t-19 -46zM441 501q0 -27 19 -46t46 -19t46 19t19 46t-19 46t-46 19t-46 -19t-19 -46z" />
    <glyph glyph-name="jinlingyingcaiwangtubiao44" unicode="&#xe7b5;" 
d="M418 314l-301 -300l19 159q1 7 -3.5 13t-12 6.5t-13.5 -4t-7 -11.5l-25 -211q-1 -8 5 -15q6 -5 13 -5h2l211 25q7 1 11.5 7t4 13.5t-6.5 12t-14 3.5l-158 -19l300 301q6 5 6 12.5t-5.5 13t-13 5.5t-12.5 -6v0zM143 768l159 -19q7 -1 13 4t6.5 12.5t-4 13t-11.5 6.5
l-211 25q-8 1 -14.5 -5t-5.5 -15l25 -210q1 -7 6 -11.5t12 -4.5h2q8 1 12.5 6.5t3.5 13.5l-19 159l301 -301q5 -5 12.5 -5t13 5t5.5 12.5t-6 12.5zM893 193q-7 -1 -12 -7t-4 -13l19 -159l-301 300q-5 6 -12.5 6t-12.5 -5.5t-5 -13t5 -12.5l301 -301l-159 19q-8 1 -13.5 -3.5
t-6.5 -12t3.5 -13.5t11.5 -7l211 -25h2q7 0 13 5q6 7 5 15l-25 211q-1 7 -7 11.5t-13 4.5v0zM582.5 437q7.5 0 12.5 5l301 301l-19 -159q-1 -8 4 -13.5t12 -6.5h2q7 0 12 4.5t6 11.5l25 210q1 9 -5.5 15t-14.5 5l-211 -25q-7 -1 -11.5 -6.5t-3.5 -13t6.5 -12.5t13.5 -4
l159 19l-301 -301q-5 -5 -5 -12.5t5 -12.5t12.5 -5z" />
    <glyph glyph-name="iconyichu01" unicode="&#xe613;" 
d="M511 833q-91 0 -174 -35.5t-143.5 -95.5t-96 -143t-35.5 -174t35.5 -174t96 -143t143.5 -96t174 -36t174 36t143 96t95.5 143t35.5 174t-35.5 174t-95.5 143t-143 95.5t-174 35.5zM777 334h-538v102h538v-102z" />
    <glyph glyph-name="iconloudoutu" unicode="&#xe679;" 
d="M83 747l311 -383v-510l248 179v332l299 382h-858zM611 49l-186 -134v432h186v-298zM613 379l-1 -1h-189l-275 338h730zM613 379z" />
    <glyph glyph-name="fenxi1" unicode="&#xe6e4;" horiz-adv-x="1402" 
d="M1089 806q61 0 106 -40t50 -99q5 -60 -33 -106t-99 -56q-29 -5 -56 1q-8 2 -13 -6q-118 -199 -172 -289q-2 -4 -2 -6.5t0.5 -3.5t4 -3t3.5 -3q61 -47 52 -119q-11 -77 -86 -106q-40 -14 -80.5 -3.5t-68 42.5t-30.5 72.5t19 76.5q6 11 -4 18q-97 70 -242 176q-9 7 -19 2
q-29 -13 -59 -9q-11 2 -16 -8q-42 -71 -73 -122q-7 -11 1 -20q41 -52 10 -110q-14 -26 -42 -40.5t-58 -10.5q-67 9 -87 69q-18 54 20.5 96t95.5 32q10 -2 16 7q40 69 69 117q7 11 -3 20q-27 24 -35 59.5t7 68.5t47 51.5t69 16.5q36 -2 64 -25t39 -57q13 -47 -12 -88
q-5 -9 3 -15q115 -83 245 -178q8 -6 16 -2q34 19 73 15q10 -1 17 10q92 156 170 286q7 11 -3 19q-39 30 -53 76.5t2 91.5q17 45 57 73.5t90 28.5v0zM1089 806z" />
    <glyph glyph-name="mima" unicode="&#xe648;" 
d="M781 393h-15v0h-135v0h-254v149q0 39 40.5 72t94.5 33t94 -33t40 -72v-36v-1v-1v-7h1q3 -19 17.5 -31.5t34 -12.5t34.5 12.5t18 31.5v0v45q0 87 -70 148.5t-169.5 61.5t-169.5 -61.5t-70 -148.5v-149h-30q-37 0 -63.5 -26.5t-26.5 -63.5v-359q0 -38 26.5 -64t63.5 -26
h539q37 0 63.5 26t26.5 64v359q0 37 -26.5 63.5t-63.5 26.5zM557 61v-41q0 -19 -13.5 -32.5t-32 -13.5t-31.5 13.5t-13 32.5v41q-27 13 -43.5 38t-16.5 56q0 42 30.5 72.5t74 30.5t74 -30.5t30.5 -72.5q0 -31 -16.5 -56t-42.5 -38z" />
    <glyph glyph-name="cuowu1" unicode="&#xe718;" 
d="M564 276l289 288q10 10 10 24.5t-10 25t-24.5 10.5t-24.5 -11l-290 -287l-286 287q-11 11 -25 11t-24.5 -10.5t-10.5 -25t10 -24.5l287 -287l-289 -288q-10 -10 -10 -24.5t10 -25t24.5 -10.5t24.5 11l289 287l289 -290q11 -10 25.5 -10t24.5 10t10 24.5t-10 24.5
l-289 290v0zM564 276z" />
    <glyph glyph-name="tianjia" unicode="&#xe6d9;" 
d="M512 761q-94 0 -179 -36.5t-147 -98.5t-98.5 -147t-36.5 -179q0 -149 89 -271l35 36q-74 106 -74 235q0 112 55 206.5t149.5 149.5t206.5 55t206.5 -55t149.5 -149.5t55 -206.5t-55 -206.5t-149.5 -149.5t-206.5 -55q-128 0 -233 72l-31 -38q119 -84 264 -84
q94 0 179 36.5t147 98.5t98.5 147t36.5 179t-36.5 179t-98.5 147t-147 98.5t-179 36.5v0zM496 530v-214h-214v-49h214v-214h49v214h214v49h-214v214h-49zM496 530z" />
    <glyph glyph-name="fenxiang" unicode="&#xe614;" 
d="M756 86h-607v438h140q4 5 11.5 14t34.5 34t58 45h-291q-19 0 -32.5 -14t-13.5 -33v-530q0 -19 13.5 -32.5t32.5 -13.5h701q19 0 33 13.5t14 32.5v265l-94 -76v-143v0zM679 461v-156l311 233l-311 234v-145q-239 0 -339 -206q-46 -96 -51 -194q42 69 77.5 110.5t80.5 71
t99.5 41t132.5 11.5v0zM679 461z" />
    <glyph glyph-name="fuzhilianjie" unicode="&#xe6c3;" 
d="M512 895q-104 0 -199 -40.5t-163.5 -109t-109 -163t-40.5 -198.5t40.5 -199t109 -163.5t163.5 -109t199 -40.5t198.5 40.5t163 109t109 163.5t40.5 199t-40.5 198.5t-109 163t-163 109t-198.5 40.5zM444 129q-38 -38 -93 -38t-93.5 38.5t-38.5 93.5t38 93l133 133
q38 38 93 38t94 -39l4 -4l2 -2q3 -3 5 -7v0v0v0q11 -21 -5.5 -37.5t-37.5 -5.5q0 -1 -13 12v0q-20 20 -48.5 20t-48.5 -20l-133 -133q-20 -20 -20 -48.5t20 -48.5v0q20 -20 48.5 -20t48.5 20l80 80q44 -22 89 -1l-124 -124v0zM766 451l-132 -132q-39 -39 -93.5 -39t-93.5 39
l-4 4l-2 2q-3 3 -6 7v0.5v0.5v0q-11 20 5.5 37t37.5 5q1 1 14 -11v0q20 -21 48.5 -21t48.5 20l132 133q21 20 21 48.5t-21 48.5v0q-20 21 -48.5 21t-48.5 -21l-80 -79q-44 21 -88 1l123 123q39 39 93.5 39t93.5 -39t39 -93.5t-39 -93.5z" />
    <glyph glyph-name="3" unicode="&#xe615;" 
d="M681 -59q-19 0 -37 3q-71 12 -111 55q-19 -6 -40 0q-40 -47 -121 -55q-68 -8 -116 12t-54 57q-4 28 20 51t62 38q-30 38 -44 83q-20 -24 -36.5 -35t-33.5 -7t-27 25q-14 24 -10.5 76t26.5 99q15 30 48 66q-12 24 -12 41q0 34 29 57q-3 18 -3 35q0 121 84.5 204t207.5 83
q121 0 207 -84t86 -203v-8v-25q24 -18 24 -59q0 -26 -8 -39q13 -19 40 -62l3 -5q22 -35 26.5 -91t-10.5 -85q-10 -22 -27 -26q-5 -1 -10 -1v0q-32 0 -61 41q-15 -44 -42 -80q83 -34 76 -85q-4 -33 -43 -54.5t-93 -21.5zM542 40l9 -12q31 -41 98 -53q16 -2 32 -2q42 0 72 15
t32 33q2 15 -19 31t-58 28l-24 8l18 18q21 22 37.5 55t20.5 63l6 41l32 -48q10 -15 15.5 -22.5t14 -14t16.5 -6.5v0h4q12 8 12 59.5t-22 93.5l-3 5q-33 51 -47 70l-10 14l15 9q5 4 5 25q0 13 -2.5 20.5t-5.5 10t-9 6.5l-10 5l2 11q1 9 1 31v8q0 106 -76.5 180.5t-184.5 74.5
q-109 0 -184.5 -74t-75.5 -181q0 -18 4 -40l1 -10l-8 -6q-22 -15 -22 -36q0 -12 13 -37l5 -10l-8 -8q-36 -39 -50 -66q-19 -39 -23 -83t6 -63q4 -8 7 -9v0q12 0 50 47l33 40l4 -38q7 -65 58 -117l19 -19l-26 -8q-37 -11 -60.5 -28.5t-21.5 -32.5q3 -22 43 -35t92 -7
q76 8 105 52l5 7h13l4 -2q19 -9 33 0z" />
    <glyph glyph-name="liebiao3" unicode="&#xe764;" 
d="M389 505h488q33 0 57 24t24 57.5t-24 57.5t-57 24h-488q-34 0 -58 -24t-24 -57.5t24 -57.5t58 -24zM389 627h488q16 0 28 -11.5t12 -28.5t-12 -29t-28 -12h-488q-17 0 -29 12t-12 29t12 28.5t29 11.5zM877 383h-488q-34 0 -58 -23.5t-24 -57.5t24 -57.5t58 -23.5h488
q33 0 57 23.5t24 57.5t-24 57.5t-57 23.5zM877 262h-488q-17 0 -29 11.5t-12 28.5t12 29t29 12h488q16 0 28 -12t12 -29t-12 -28.5t-28 -11.5zM144.5 383q-33.5 0 -57.5 -23.5t-24 -57.5t24 -57.5t57.5 -23.5t57.5 23.5t24 57.5t-24 57.5t-57.5 23.5zM145 262
q-17 0 -29 11.5t-12 28.5t12 29t29 12t28.5 -12t11.5 -29t-11.5 -28.5t-28.5 -11.5zM144.5 99q-33.5 0 -57.5 -24t-24 -57.5t24 -57.5t57.5 -24t57.5 24t24 57.5t-24 57.5t-57.5 24zM145 -23q-17 0 -29 12t-12 28.5t12 28.5t29 12t28.5 -12t11.5 -28.5t-11.5 -28.5
t-28.5 -12zM144.5 668q-33.5 0 -57.5 -24t-24 -57.5t24 -57.5t57.5 -24t57.5 24t24 57.5t-24 57.5t-57.5 24zM145 546q-17 0 -29 12t-12 29t12 28.5t29 11.5t28.5 -11.5t11.5 -28.5t-11.5 -29t-28.5 -12zM877 99h-488q-34 0 -58 -24t-24 -57.5t24 -57.5t58 -24h488
q33 0 57 24t24 57.5t-24 57.5t-57 24zM877 -23h-488q-17 0 -29 12t-12 28.5t12 28.5t29 12h488q16 0 28 -12t12 -28.5t-12 -28.5t-28 -12z" />
    <glyph glyph-name="edit" unicode="&#xe6d4;" 
d="M768 190q-15 0 -26 -10.5t-11 -25.5v-183q0 -15 -10.5 -25.5t-25.5 -10.5h-585q-15 0 -25.5 10.5t-10.5 25.5v585q0 15 10.5 25.5t25.5 10.5h475q15 0 26 11t11 26t-11 25.5t-26 10.5h-511q-31 0 -52 -21.5t-21 -51.5v-657q0 -31 21 -52t52 -21h657q30 0 51.5 21t21.5 52
v219q0 15 -10.5 25.5t-25.5 10.5zM1013 614l-114 114q-11 10 -26 10t-26 -10l-103 -103l-398 -398q-5 -5 -8 -12l-85 -199q-10 -22 8 -40q10 -10 25 -10q8 0 15 2l199 86q6 2 12 7l398 398l103 103q10 11 10 26t-10 26zM356 72l34 77l44 -44zM477 130l-62 62l359 359l62 -63
zM870 523l-62 62l65 65l62 -62z" />
    <glyph glyph-name="gongzuotai" unicode="&#xe656;" 
d="M640 32l-64 128h326q24 0 41 17t17 41v524q0 24 -17 41t-41 17h-780q-24 0 -41 -17t-17 -41v-524q0 -24 17 -41t41 -17h326l-64 -128h-384v-64h1024v64h-384zM186 224q-24 0 -41 17t-17 41v396q0 24 17 41t41 17h652q24 0 41 -17t17 -41v-396q0 -24 -17 -41t-41 -17h-652
z" />
    <glyph glyph-name="changjianwenti" unicode="&#xe72d;" 
d="M791 455q0 116 -99 206t-221 90q-55 0 -139 -40q-98 -47 -98 -103q0 -30 23 -54.5t56 -24.5q22 0 75 35t83 35q57 0 110.5 -46t53.5 -98q0 -45 -73 -100q-67 -48 -134 -95q-72 -56 -72 -101q0 -30 24 -53.5t56 -23.5q33 0 60 30q30 33 86 72q89 63 93 66q116 89 116 205
v0zM471 -117q19 30 19 64q0 32 -17 56q-22 29 -60 29q-46 0 -73 -40q-22 -33 -22 -71q0 -33 29 -56q26 -20 58 -20q42 0 66 38v0z" />
    <glyph glyph-name="gerenxinxi1" unicode="&#xe71d;" 
d="M785 358q-59 -82 -131.5 -124t-140.5 -39q-92 4 -157.5 43t-116.5 114q-36 -28 -57 -69.5t-21 -89.5v-137q0 -84 59.5 -144t142.5 -60h337q80 0 121.5 57.5t41.5 146.5v137q0 48 -21.5 92.5t-56.5 72.5zM492.5 242q104.5 0 179 74t74.5 179t-74.5 179t-179 74t-178.5 -74
t-74 -179t74 -179t178.5 -74zM785 358q-59 -82 -131.5 -124t-140.5 -39q-92 4 -157.5 43t-116.5 114q-36 -28 -57 -69.5t-21 -89.5v-137q0 -84 59.5 -144t142.5 -60h337q80 0 121.5 57.5t41.5 146.5v137q0 48 -21.5 92.5t-56.5 72.5zM492.5 242q104.5 0 179 74t74.5 179
t-74.5 179t-179 74t-178.5 -74t-74 -179t74 -179t178.5 -74z" />
    <glyph glyph-name="active-user" unicode="&#xe6e2;" horiz-adv-x="1029" 
d="M766 119q7 -5 16 -5q14 0 22 11q7 9 5 20t-11 18q-67 50 -146 71q44 22 80 57q87 86 87 208t-87 208q-88 86 -212 86t-211 -86q-88 -86 -88 -208t88 -208q40 -40 92 -62q-100 -33 -175 -108q-62 -62 -95.5 -142t-33.5 -168q0 -12 8 -20t19.5 -8t19.5 8t8 20
q0 104 51.5 192.5t140 140t192.5 51.5q128 0 230 -76v0zM275 499q0 99 72 169t173 70t173 -70t72 -169t-72 -169.5t-173 -70.5t-173 70.5t-72 169.5zM917 -13q-8 8 -19.5 8t-19.5 -8l-136 -136l-136 136q-2 2 -4 3q-7 5 -15 5q-5 0 -10 -2t-9 -6l-155 -155q-8 -8 -8 -19.5
t8 -19.5t19 -8t19 8l136 136l136 -136q8 -8 19 -8q3 0 5 1q9 1 15 7l155 155q8 8 8 19.5t-8 19.5v0z" />
    <glyph glyph-name="em" unicode="&#xe753;" 
d="M947 421q-5 22 -17 40q-7 12 -17 22l-8 13l-1 -5q-8 5 -14 10q-4 2 -5 2l-23 14v0q0 9 -2 20q-7 44 -40.5 72t-77.5 28h-89l-75 44l-8 4q-26 14 -58.5 14t-60.5 -15l-82 -47h-89q-44 0 -77.5 -28.5t-41.5 -71.5q-1 -11 -1 -20v-1l-29 -16q-24 -15 -39 -38
q-12 -18 -17 -39q-5 -10 -5 -29v-364q0 -46 22 -71q28 -50 77 -50h684q50 0 76 49q22 23 22 70v365q3 13 -4 28zM862 447q11 -8 18 -19q5 -7 8 -16q-1 -4 -2 -4q-1 -3 -1 -5q-2 -2 -4 -7l-1 -1.5l-1 -1.5q-2 -3 -6 -7l-1 -1t-1 -2q-4 -4 -9 -7v71zM528 637h-34q17 4 34 0z
M220 517q0 5 1 10q3 22 20 36t39 14h462q22 0 38.5 -14t20.5 -36q1 -6 1 -10v-176l-225 -129v0l-13 -8l-21 -12q-33 -17 -65 0q0 1 -0.5 1h-0.5l-18 10l-15 9v0l-202 117l-22 12v176zM142 428q7 12 18 19v-70q-6 3 -8 6h-1l-8 10l-1 1.5l-1 1.5q-2 4 -4 7q0 1 -2 5l-1 4
q3 9 8 16zM130 30v294l8 -5l22 -12v0l59 -35h1l152 -88l12 -7l-209 -121l-44 -25v-0.5t-1 -0.5zM853 -30h-684q-8 0 -13 4q5 4 6 5l282 163l6 -3q28 -15 61 -15q32 0 60 15l4 2l2 1l279 -161l3 -1q2 -2 7 -6q-5 -4 -13 -4zM891 30v1q-3 2 -6 3l-247 143l164 95l2 1l58 33v0
l29 17v-293zM283 491h455v-60h-455v60zM283 393h455v-60h-455v60z" />
    <glyph glyph-name="redian" unicode="&#xe64a;" 
d="M823 424h-1q-25 51 -35 116l-1 10l-10 -4q-62 -21 -87 -79q-25 -56 -13 -146v-2l-2 2q-128 121 -115 414l1 13l-12 -4q-181 -61 -212 -243q-17 -102 20 -269q4 -17 5 -25v-1l-1 1q-54 31 -90 133q-14 40 -22 82l-3 13l-10 -7q-50 -31 -76.5 -94.5t-26.5 -126.5
q0 -100 50 -185t135.5 -134.5t185.5 -49.5q75 0 142.5 28t120 80t80.5 119.5t28 141.5q0 128 -51 217zM624 -82q-57 -24 -121 -24q-131 0 -221 89t-94 224q-1 26 11 68.5t21 52.5l1 1l1 -1q1 -4 4 -11q23 -70 53 -106q55 -67 147 -71l12 -1l-3 11q-2 9 -6 25l-1 1
q-13 52 -20 83t-14.5 82.5t-6.5 93.5q1 73 26 128q29 63 90 100l1 1v-1q0 -185 61 -297q61 -114 171 -120l12 -1l-4 12q-7 27 -11 59.5t-1.5 70t14.5 61.5l1 2v-2q4 -11 18 -43v0q15 -34 24 -56t19 -63.5t11 -78.5v0q-11 -135 -98 -223q-42 -43 -97 -66zM773 409v0v0v0z" />
    <glyph glyph-name="key" unicode="&#xe72e;" 
d="M770 53q0 -107 -76 -183.5t-184 -76.5t-184 76.5t-76 183.5q0 97 62.5 169.5t156.5 87.5v468q0 12 8 20t19.5 8t19.5 -8t8 -20v-55h136q12 0 20 -8t8 -19t-8 -19t-20 -8h-136v-82h136q12 0 20 -8t8 -19.5t-8 -19.5t-20 -8h-136v-220q103 -5 174.5 -80t71.5 -179zM305 53
q0 -85 60 -145t145 -60t145 60t60 145t-60 145t-145 60t-145 -60t-60 -145z" />
    <glyph glyph-name="demo13" unicode="&#xe6cf;" 
d="M928.5 576q-12.5 4 -24.5 -1.5t-16 -18.5l-50 -148q-32 141 -144.5 231t-258.5 90q-113 0 -209 -56t-151.5 -151.5t-55.5 -208.5t55.5 -209t151.5 -151.5t209 -55.5q132 0 239 76q11 7 13 20t-5.5 24t-20.5 13t-24 -5q-90 -64 -202 -64q-95 0 -176.5 47t-128.5 128
t-47 176.5t47 177t128.5 128.5t176.5 47q131 0 229 -83.5t119 -212.5v-6v-5l-161 89q-12 7 -25 3.5t-19 -15.5t-2.5 -24.5t14.5 -18.5l228 -127q11 -6 30 2q5 2 8.5 7t8 15.5t5.5 10.5q13 27 32.5 85.5t32.5 104.5l13 46q5 12 -1 24t-18.5 16z" />
    <glyph glyph-name="xiugaimima" unicode="&#xe684;" 
d="M765 429h-603q-22 0 -37.5 -15.5t-15.5 -37.5v-403q0 -22 15.5 -37.5t37.5 -15.5h603q22 0 37.5 15.5t15.5 37.5v403q0 22 -15.5 37.5t-37.5 15.5zM792 -27q0 -11 -8 -19t-19 -8h-603q-11 0 -19 8t-8 19v403q0 11 8 19t19 8h603q11 0 19 -8t8 -19v-403zM211 483
q2 -1 4 -1q9 0 12 9t7 18q31 74 97.5 118t145.5 44q69 0 128.5 -33t95.5 -91q7 -11 18 -4t4 17q-39 63 -103 99q-66 38 -143 38q-87 0 -160 -48.5t-107 -128.5q-4 -10 -7 -21q-5 -12 8 -16zM463.5 306q-23.5 0 -40.5 -16.5t-17 -40.5q0 -19 11 -34t29 -21v-76q0 -7 5 -12.5
t12.5 -5.5t12.5 5.5t5 12.5v76q18 6 29 21t11 34q0 24 -17 40.5t-40.5 16.5z" />
    <glyph glyph-name="arrowleft" unicode="&#xe704;" 
d="M32 300l480 -480v288h512v384h-512v288z" />
    <glyph glyph-name="weixin3" unicode="&#xe6e5;" horiz-adv-x="1258" 
d="M319 497q-26 0 -45.5 15.5t-19.5 38.5t19.5 38t44.5 15q24 0 38.5 -14.5t14.5 -38.5q1 -24 -13.5 -39t-38.5 -15zM618 604q24 0 38.5 -14.5t14.5 -38.5t-14.5 -39t-38.5 -15q-25 0 -45 15.5t-20 38.5t20 38t45 15zM848 488q23 0 41 -2q-28 129 -151 214.5t-281 85.5
q-116 0 -214.5 -48t-156 -132t-57.5 -184q0 -169 172 -289l-43 -129l150 75q8 -1 29.5 -5.5t31.5 -6.5t27 -4.5t31.5 -3.5t29.5 -1q20 0 40 2q-13 44 -13 89q0 93 48 170.5t132 123t184 45.5v0zM992 208q-16 0 -29 13.5t-13 29.5t13 29.5t29 13.5q24 0 39 -13t15 -30
t-15 -30t-39 -13zM757 208q-16 0 -29.5 13.5t-13.5 29.5t13.5 29.5t29.5 13.5q23 0 38 -13t15 -30q1 -17 -14.5 -30t-38.5 -13zM1238 154q0 84 -50.5 156t-134 113.5t-178.5 41.5q-100 0 -184 -41.5t-132 -113t-48 -156t48 -156t132 -113t184 -41.5q41 0 128 22l118 -65
l-32 107q68 52 108.5 114.5t40.5 131.5z" />
    <glyph glyph-name="dianhua11" unicode="&#xe6b0;" 
d="M826 -212q-100 0 -256 83q-135 77 -276 218q-142 152 -211 281q-25 45 -64 135q-19 57 -19 109q0 32 19 51q6 11 19 26.5t26 24.5q15 15 45.5 41.5t44.5 35.5l19 13q10 10 32 0l6 -7q2 -2 7.5 -6t10.5 -9t8 -10q29 -29 57 -77q32 -51 71 -128v-13q0 -1 -0.5 -2.5
t-1.5 -3.5t-2 -3.5t-3.5 -5t-4.5 -6t-6 -8t-8 -9.5q-25 -26 -25 -32q-9 -18 0 -45v-7q4 -21 7 -33t12.5 -31.5t24.5 -37.5q29 -48 77 -96q17 -17 47.5 -44t42.5 -39q63 -45 96 -45q9 0 19 1.5t17 3.5t17.5 6.5t14.5 6.5l15 7.5l13 6.5q5 2 22.5 10.5t28.5 8.5h13
q29 -9 134 -77q71 -51 109 -89v-26q-4 -26 -35.5 -68.5t-54.5 -59.5q-28 -29 -57 -38q-39 -13 -51 -13zM186 754v0q-16 -10 -45.5 -36.5t-38.5 -39.5q-30 -21 -38 -45q-6 -13 -13 -19v0q0 -42 19 -90q16 -54 58 -128q77 -134 205 -262q121 -131 262 -212q135 -76 231 -76
q19 0 32 6q6 3 19 12.5t19 13.5q18 13 39 40.5t31 48.5q-22 23 -89 71q-23 15 -49.5 31t-40 24.5t-19.5 14.5q-13 0 -26 -13q-3 -1 -30 -14t-47.5 -18.5t-43.5 -5.5q-51 0 -128 57q-64 52 -96 90q-45 45 -83 96q-18 21 -29.5 44t-14.5 37.5t-8 40.5l-6 6q-6 17 -6 39.5
t12 43.5q3 3 6.5 8t9 14t10.5 17q13 12 19 12q-32 64 -57 109q-39 51 -58 71q-6 6 -6 12z" />
    <glyph glyph-name="zuo" unicode="&#xe6c7;" 
d="M326 299l397 398q5 5 5 12t-5 12t-12 5t-12 -5l-410 -410q-5 -5 -5 -12t5 -12l410 -410q5 -5 12 -5t12 5t5 12.5t-5 12.5z" />
    <glyph glyph-name="xuanzhong" unicode="&#xe7d0;" horiz-adv-x="1037" 
d="M967 555q0 72 -51 123t-123 51h-531q-72 0 -123 -51t-51 -123v-531q0 -72 51 -123t123 -51h531q72 0 123 51t51 123v531zM782 399l-275 -278q-2 -3 -4 -5q-11 -12 -27.5 -12t-28.5 12l-141 142q-12 12 -12 29t12 28.5t28.5 11.5t27.5 -12l113 -113l251 254q12 12 28.5 12
t28 -12t11.5 -28.5t-12 -28.5v0z" />
    <glyph glyph-name="iconfonticonfontclose" unicode="&#xe664;" 
d="M557 287l266 264q9 9 9 22t-9.5 22.5t-22.5 9.5t-23 -9l-265 -264l-263 264q-9 9 -22.5 9t-23 -9t-9.5 -22.5t10 -22.5l263 -264l-265 -264q-10 -9 -10 -22.5t9.5 -22.5t22.5 -9t23 9l265 264l265 -267q10 -9 23 -9t22.5 9.5t9.5 22.5t-9 23z" />
    <glyph glyph-name="yanjing1" unicode="&#xe677;" horiz-adv-x="1047" 
d="M1013 320q-12 88 -80 161.5t-175 115t-230 40.5q-124 -1 -230.5 -42.5t-172.5 -114t-75 -160.5l-34 4q11 96 81.5 175.5t184 125t246.5 46.5q131 2 245.5 -43.5t187.5 -126t85 -177.5zM529 -94q-130 0 -243.5 45.5t-185.5 125.5t-84 176l34 5q11 -88 78 -161t173 -115
t228 -42h5q125 1 231 43t172 114t76 160l33 -3q-10 -97 -80.5 -176.5t-184.5 -125t-247 -46.5h-5zM531 39q-102 0 -175.5 72.5t-74.5 175.5q0 103 72.5 177t175.5 74h2q102 0 175.5 -72.5t74.5 -174.5q1 -103 -72 -177t-176 -75h-2zM531 504h-2q-89 0 -151.5 -64t-61.5 -153
q0 -88 63.5 -151t151.5 -63h2q89 1 151.5 64.5t62.5 153.5q-1 88 -64.5 150.5t-151.5 62.5zM414 288q0 48 34 82.5t82 34.5v-34q-34 0 -58 -24.5t-24 -58.5h-34z" />
    <glyph glyph-name="bullhorn" unicode="&#xe672;" horiz-adv-x="1025" 
d="M993 653q-36 108 -97 108h-2q-28 -1 -154 -38q-84 -24 -137 -38.5t-145 -35.5t-181 -31.5t-175 -10.5q-43 0 -72.5 -51t-29.5 -128t29.5 -128t72.5 -51q29 0 57 -1l85 -340q8 -29 33.5 -49t55.5 -20h67q35 0 51.5 25.5t3.5 57.5l-132 310q160 -24 417 -99
q126 -37 154 -38h1.5h0.5q61 0 97 108q31 94 31 225t-31 225v0zM819 428q0 39 4 77q19 -2 33 -24.5t14 -52.5t-14 -52.5t-33 -24.5q-4 38 -4 77zM51 428q0 55 17 91.5t34 36.5q83 0 173 10q-19 -60 -19 -138t19 -138q-90 10 -173 10q-17 0 -34 36.5t-17 91.5zM408 -98
q3 -7 1 -9.5t-9 -2.5h-67q-12 0 -24 9.5t-15 21.5l-81 323q26 -2 51 -5zM332 282q-25 57 -25 146q0 90 25 146q164 24 423 100l60 18q-9 -17 -16 -39q-31 -94 -31 -225t31 -225q7 -22 16 -39l-60 18q-260 76 -423 100v0zM944 219q-9 -27 -19 -44t-17 -23t-12 -6t-12 6
t-17 23t-19 44q-12 36 -19 82q39 4 65 39q28 37 28 88t-28 88q-26 35 -65 39q7 46 19 82q9 27 19 44t17 23t12 6t12 -6t17 -23t19 -44q29 -86 29 -209t-29 -209v0z" />
    <glyph glyph-name="xiangyou1" unicode="&#xe72f;" 
d="M737 312v0l-397 397q-11 12 -27 12q-15 0 -26 -10.5t-11 -25.5t11 -26v0l373 -373l-373 -373v0v0v0q-10 -11 -10 -25q0 -16 10.5 -26.5t25.5 -10.5t25 10v0v0l1 1l398 398q11 11 11 26t-11 26z" />
    <glyph glyph-name="gou" unicode="&#xe79b;" horiz-adv-x="1025" 
d="M512 812q-104 0 -199 -40.5t-163.5 -109t-109 -163.5t-40.5 -199t40.5 -199t109 -163.5t163.5 -109t199 -40.5t199 40.5t163.5 109t109 163.5t40.5 199t-40.5 199t-109 163.5t-163.5 109t-199 40.5zM806 433l-331 -331h-1q-11 -12 -27 -13.5t-29 6.5q-5 3 -9 7v0
l-191 190q-13 14 -13 33t13.5 32.5t32.5 13.5t33 -13l158 -158l298 298q14 14 33 14t32.5 -13.5t13.5 -33t-13 -32.5z" />
    <glyph glyph-name="Secret" unicode="&#xe730;" 
d="M498.5 721q94.5 0 161 -66.5t66.5 -160.5v-70h-455v70q0 94 66.5 160.5t161 66.5zM499 774q-116 0 -198 -82.5t-82 -197.5v-123h560v123q0 115 -82.5 197.5t-197.5 82.5v0zM814 371v-385q0 -43 -31 -74t-74 -31h-420q-44 0 -74.5 31t-30.5 74v385h630zM866 424h-735v-438
q0 -66 46 -111.5t112 -45.5h420q66 0 111.5 45.5t45.5 111.5v438zM507.5 196q10.5 0 18.5 -8t8 -18v-105q0 -11 -8 -18.5t-18.5 -7.5t-18.5 7.5t-8 18.5v105q0 10 8 18t18.5 8z" />
    <glyph glyph-name="shangsheng" unicode="&#xe6f6;" 
d="M512 791q-99 0 -190 -39.5t-156.5 -105t-105 -156.5t-39.5 -190v-17v-9q0 -6 7.5 -11.5t14.5 -5.5q9 0 15 6t6 16v8v13q0 122 60 225t163 163t225 60t225 -60t163 -163t60 -225t-60 -225t-163 -163t-225 -60q-121 0 -226 62t-167 168v5l222 183l116 -115q6 -6 14.5 -6
t14.5 6l282 243v-141q0 -9 6 -15t15.5 -6t15.5 6t6 15v192q0 10 -6 16t-16 6h-192q-9 0 -15 -6t-6 -15.5t6 -15.5t15 -6h137l-265 -226l-115 115q-6 6 -14.5 6t-15.5 -6l-256 -213q-13 -13 -4 -30q2 -2 6.5 -4.5t6.5 -4.5v-4q63 -117 179 -184.5t252 -67.5q99 0 189.5 39.5
t156.5 105t105 156.5t39 190t-38.5 189.5t-103.5 156.5t-155 105.5t-189 39.5z" />
    <glyph glyph-name="tianjia1" unicode="&#xe78b;" 
d="M512 -150q-19 0 -32 13t-13 32v810q0 19 13 32t32 13v0q19 0 32 -13t13 -32v-810q0 -19 -13 -32t-32 -13v0zM962 300q0 -19 -13 -32t-32 -13h-810q-19 0 -32 13t-13 32v0q0 19 13 32t32 13h810q19 0 32 -13t13 -32v0z" />
    <glyph glyph-name="iconfontdianhua" unicode="&#xe665;" 
d="M434 222q-207 207 -151 263q4 4 12 11q17 17 25 25.5t19.5 24.5t14 27.5t3.5 30t-7 36.5t-22.5 43t-37.5 54q-19 23 -37.5 39t-35.5 22.5t-31.5 9.5t-30.5 -3t-27.5 -11t-27 -19t-24 -22t-23.5 -24t-22 -22q-22 -23 -26.5 -67t11.5 -106t50 -132.5t94.5 -153.5
t138.5 -161t161 -138.5t153.5 -94.5t132.5 -50t106 -11.5t67 27.5q6 6 22 21t24 23.5t22 24t18.5 27t11 27.5t3.5 30.5t-9.5 31.5t-22.5 35.5t-39 37.5q-29 23 -54 37.5t-43 22.5t-36.5 7t-30 -3.5t-27.5 -14t-24.5 -19.5t-25.5 -25q-7 -8 -11 -12q-56 -56 -263 151v0v0z
" />
    <glyph glyph-name="jiantou1" unicode="&#xe78c;" 
d="M294 -212q-30 0 -51.5 21.5t-21.5 51.5t21 52l387 387l-387 387q-21 22 -21 52t21.5 51.5t51.5 21.5t52 -21l439 -439q21 -22 21 -52t-21 -52l-439 -439q-22 -21 -52 -21z" />
    <glyph glyph-name="qiye3" unicode="&#xe731;" 
d="M575 690h-384q-26 0 -45 -19t-19 -45v-642q0 -26 19 -45t45 -19h384q26 0 45 19t19 45v642q0 26 -19 45t-45 19zM575 -17h-384v642h384v-642zM255 493h102v-64h-102v64zM412 493h102v-64h-102v64zM255 364h102v-64h-102v64zM412 364h102v-64h-102v64zM255 236h102v-64
h-102v64zM412 236h102v-64h-102v64zM834 480h-259v-65h259v-432h-259v-63h259q26 0 45 19t19 45v432q0 27 -19 45.5t-45 18.5zM704 364h64v-64h-64v64zM704 235h64v-64h-64v64z" />
    <glyph glyph-name="shangcheng1" unicode="&#xe69d;" 
d="M953 459v2q-1 3 -2 5l-75 187q-10 28 -35.5 45t-58.5 17h-527q-33 0 -57 -16t-34 -45l-80 -190q-1 -2 -1 -5q-9 -27 -9 -54q0 -49 25 -91t68 -65v0v0v0v0q36 -19 83 -19q82 0 134 63q52 -62 134 -63q81 1 133 63q52 -62 135 -62q48 0 84 20q42 23 66.5 64.5t24.5 89.5
q0 28 -8 54zM839 307q-22 -12 -54 -12q-29 0 -54 14t-41 39q-4 8 -8 13q-12 13 -31 13q-20 0 -31 -13q-4 -5 -8 -13q-16 -25 -40.5 -39t-53.5 -15q-29 1 -54 15t-41 39q-4 8 -7 12q-11 13 -31.5 13t-30.5 -12q-5 -5 -9 -14q-16 -25 -41 -39t-54 -14q-31 0 -53 12v0v0
q-27 14 -43 40.5t-16 57.5q0 19 6 37q0 1 1 3l79 188q7 19 31 19h527q27 -2 34 -21l74 -185q1 -2 1 -3q6 -18 6 -37q0 -31 -15.5 -57.5t-42.5 -40.5zM863 204q-13 0 -22.5 -9.5t-9.5 -22.5v-175q0 -7 -5 -12.5t-13 -5.5h-602q-7 0 -12.5 5t-5.5 13v171q0 14 -9.5 23t-22.5 9
v0q-13 0 -22.5 -9t-9.5 -23v-171q0 -34 24 -58t58 -24h602q34 0 58 24.5t24 57.5v175q0 13 -9.5 22.5t-22.5 9.5zM768 428h-512q-13 0 -22.5 9.5t-9.5 22.5t9.5 22.5t22.5 9.5h512q13 0 22.5 -9.5t9.5 -22.5t-9.5 -22.5t-22.5 -9.5z" />
    <glyph glyph-name="shoucang1" unicode="&#xe719;" horiz-adv-x="1025" 
d="M778 -106q-18 0 -37 10l-207 108q-9 5 -21 5q-10 0 -20 -4l-206 -109q-18 -10 -39 -10q-38 0 -64 29q-25 28 -19 68l40 229q3 23 -13 39l-166 161q-18 17 -23.5 40t2 46t25.5 38t42 19l229 34q24 3 34 24l102 208q11 22 31 34.5t44 12.5t44 -12.5t31 -34.5l102 -208
q11 -21 34 -24l230 -34q23 -4 41 -19t26 -37q8 -23 2.5 -46t-22.5 -40l-165 -162q-17 -15 -14 -39l39 -228q7 -40 -18 -68q-24 -30 -64 -30zM765 -44q8 -3 12 -3q12 0 20 9q7 9 5 20l-39 228q-5 25 3 49.5t27 41.5l165 163q9 9 6 25q-5 15 -21 17l-229 34q-26 4 -46.5 18.5
t-31.5 37.5l-102 208q-6 13 -22 13q-14 0 -22 -14l-103 -207q-10 -22 -31 -37.5t-47 -18.5l-229 -34q-14 -3 -19 -17v-1q-5 -13 6 -24l166 -163q38 -36 29 -91l-39 -228q-2 -12 6 -19q7 -9 19 -9q5 0 11 2l207 109q20 12 47 12q24 0 47 -12z" />
    <glyph glyph-name="xingxing" unicode="&#xe66c;" horiz-adv-x="1025" 
d="M778 -118q-18 0 -37 10l-207 108q-9 5 -21 5q-10 0 -20 -4l-206 -109q-18 -10 -39 -10q-38 0 -64 29q-25 28 -19 68l40 229q3 23 -13 39l-166 161q-18 17 -23.5 40t2 46t25.5 38t42 19l229 34q24 3 34 24l102 208q11 22 31 34.5t44 12.5t44 -12.5t31 -34.5l102 -208
q11 -21 34 -24l230 -34q23 -4 41 -19t26 -37q8 -23 2.5 -46t-22.5 -40l-165 -162q-17 -15 -14 -39l39 -228q7 -40 -18 -68q-24 -30 -64 -30z" />
    <glyph glyph-name="weibo" unicode="&#xe6c4;" 
d="M411.5 288.5q-13.5 5.5 -29 0.5t-23.5 -18t-4.5 -26.5t16.5 -19.5q13 -7 29 -1.5t24 19t4.5 27t-17 19zM456 307q-13 4 -20 -8t5 -17q13 -5 20 7q3 6 1.5 11t-6.5 7zM428 426.5q-87 -8.5 -145 -54.5t-52 -103t71.5 -91.5t152.5 -26t144.5 55t52 103.5t-71 91t-152.5 25.5
zM529 248q-17 -40 -61.5 -58.5t-87.5 -5.5q-42 14 -58 50t3 73q18 36 59 54t82 7q43 -11 62 -46t1 -74zM512 896q-139 0 -257 -68.5t-186.5 -186.5t-68.5 -257t68.5 -257t186.5 -186.5t257 -68.5t257 68.5t186.5 186.5t68.5 257t-68.5 257t-186.5 186.5t-257 68.5zM456 101
q-75 0 -141 22t-109.5 65t-43.5 99q0 92 104 196q66 66 133.5 92t96.5 -3q25 -25 8 -81q-4 -12 6 -11t10 3q55 22 97 22.5t60 -23.5q17 -25 -1 -70q-3 -9 0 -12t12 -6q35 -11 60 -35t25 -60q0 -33 -23.5 -68t-63.5 -64t-101 -47.5t-129 -18.5zM719 468q8 24 -9.5 43
t-42.5 14v0q-9 -2 -17 3t-10 14.5t3 17.5t15 10q51 11 86 -27.5t19 -88.5q-3 -9 -11.5 -13.5t-18 -1.5t-13.5 11.5t-1 17.5v0v0zM853 425v0q-3 -11 -13 -16t-20.5 -1.5t-15.5 13.5t-2 20v0q11 32 4 67t-31.5 61.5t-58 37.5t-67.5 3q-11 -2 -20 4t-11.5 17t3.5 20t17 12v0
q48 10 95.5 -5t81 -52.5t44 -86.5t-5.5 -94z" />
    <glyph glyph-name="lidaoxiangbuju" unicode="&#xe6cb;" 
d="M964 197q0 18 -7 34.5t-19 28t-28 18.5t-34 7t-35 -7q-13 -5 -23 -14l-203 85v8v0q0 20 -8 39q-1 2 -2 5l100 137q11 -3 22 -3q18 0 34 7t28 19t19 28t7 34v0q0 18 -7 34.5t-19 28t-28 18.5t-34 7t-34.5 -7t-28 -18.5t-18.5 -28t-7 -34.5q0 -15 5 -29q3 -8 7 -16
l-95 -129l-3 1q-19 8 -39 8q-17 0 -32 -5l-152 170v0.5v0.5q7 17 7 35v0q0 17 -7 33.5t-18.5 28.5t-28 19t-34.5 7t-34 -7t-28 -19t-19 -28.5t-7 -33.5q0 -16 5 -30t14 -25l1 -2q6 -6 13 -12v0q12 -10 26 -15t29 -5q16 0 31 6l148 -165q-4 -7 -8 -15q-7 -18 -8 -38l-184 -41
q-5 8 -11 14q-12 12 -28 19t-34 7t-34.5 -7t-28 -19t-18.5 -28.5t-7 -33.5q0 -16 5 -30t14 -25l1 -1q6 -7 13 -13q11 -9 25.5 -14t29.5 -5q18 0 34 7t28 18.5t19 27.5q3 8 5 16l193 44l1 -1l1 -1q7 -8 14 -15q10 -7 21 -12l-20 -237v0q-17 -7 -28.5 -18.5t-18.5 -28
t-7 -34.5q0 -15 5 -29t14 -26l1 -1q6 -6 13 -12q11 -10 25 -15t30 -5q18 0 34 7t28 19t19 28t7 34v0q0 18 -7 34.5t-19 28t-28 18.5v0l19 230q8 2 15 5q19 8 33 22l2 2l200 -84v-6q0 -15 5 -29t14 -26l1 -1q6 -7 13 -13q11 -9 25 -14t30 -5q18 0 34 7t28 19t19 28t7 34v0z
" />
    <glyph glyph-name="fabu1" unicode="&#xe766;" horiz-adv-x="1058" 
d="M892 -14l-430 132l430 496l-562 -496l-330 132l1057 562zM462 -212v231l133 -66z" />
    <glyph glyph-name="shangchuan1" unicode="&#xe78d;" 
d="M213.5 469q-19.5 0 -31 12t-11.5 31q0 125 87 212t211 87q96 0 175 -58t111 -151q4 -18 -4 -33.5t-26 -18.5q-15 -6 -32 2t-23 24q-19 67 -74.5 108t-126.5 41q-89 0 -151 -61.5t-62 -151.5q0 -19 -11.5 -31t-31 -12zM768 128q-19 0 -31 11.5t-12 31t12 31t31 11.5
q70 0 120.5 50.5t50.5 120.5t-50.5 120.5t-120.5 50.5q-30 0 -43 -5q-16 -3 -32 6t-19 24q-3 17 5.5 32.5t24.5 18.5q43 9 64 9q106 0 181 -75t75 -181t-75 -181t-181 -75zM341 128h-128q-19 0 -30.5 11.5t-11.5 31t11.5 31t30.5 11.5h128q20 0 31.5 -11.5t11.5 -31
t-11.5 -31t-31.5 -11.5zM768 128h-85q-20 0 -31.5 11.5t-11.5 31t11.5 31t31.5 11.5h85q19 0 31 -11.5t12 -31t-12 -31t-31 -11.5zM213 128q-89 0 -151 62t-62 151.5t62 151.5t151 62q20 0 31.5 -12t11.5 -31t-11.5 -31t-31.5 -12q-54 0 -91 -36.5t-37 -91t37 -91.5t91 -37
q20 0 31.5 -11.5t11.5 -31t-11.5 -31t-31.5 -11.5zM512 -43q-19 0 -31 12t-12 31v427q0 19 12 30.5t31 11.5t31 -11.5t12 -30.5v-427q0 -19 -12 -31t-31 -12zM384 256q-17 0 -30 13t-13 30t13 30l128 128q13 12 30 12t30 -12.5t13 -29.5t-13 -30l-128 -128q-13 -13 -30 -13z
M640 256q-17 0 -30 13l-128 128q-13 13 -13 30t13 29.5t30 12.5t30 -12l128 -128q13 -13 13 -30t-13 -30t-30 -13z" />
    <glyph glyph-name="gongling" unicode="&#xe6e6;" 
d="M512 713q96 0 178 -47.5t129.5 -129t47.5 -178t-47.5 -178t-129.5 -129t-178 -47.5t-178 47.5t-129.5 129t-47.5 178t47.5 178t129.5 129t178 47.5zM512 768q-111 0 -205.5 -55t-149 -149t-54.5 -205.5t54.5 -205.5t149 -149t205.5 -55t205.5 55t149 149t54.5 205.5
t-54.5 205.5t-149 149t-205.5 55v0zM300 169q-13 0 -21 11q-7 9 -5.5 20t10.5 18l201 154v202q0 12 8 20t19 8t19 -8t8 -20v-229l-222 -170q-7 -6 -17 -6z" />
    <glyph glyph-name="jiarugedan" unicode="&#xe63d;" 
d="M233 357h279q17 0 29 12t12 29t-12 29t-29 12h-279q-17 0 -28.5 -12t-11.5 -29t11.5 -29t28.5 -12zM233 635h492q16 0 28 12t12 29t-12 29t-28 12h-492q-17 0 -28.5 -12t-11.5 -29t11.5 -29t28.5 -12zM70 160q-17 0 -29 -12t-12 -29t12 -29t29 -12t29 12t12 29t-12 29
t-29 12zM70 717q-17 0 -29 -12t-12 -29t12 -29t29 -12t29 12t12 29t-12 29t-29 12zM70 439q-17 0 -29 -12t-12 -29t12 -29t29 -12t29 12t12 29t-12 29t-29 12zM348 160h-115q-17 0 -28.5 -12t-11.5 -29t11.5 -29t28.5 -12h115q17 0 29 12t12 29t-12 29t-29 12zM962 160h-180
v180q0 14 -9.5 23.5t-23.5 9.5t-23.5 -9.5t-9.5 -23.5v-180h-180q-13 0 -22.5 -9.5t-9.5 -23t9.5 -23t22.5 -9.5h180v-180q0 -14 9.5 -23.5t23.5 -9.5t23.5 9.5t9.5 23.5v180h180q13 0 23 9.5t10 23t-10 23t-23 9.5z" />
    <glyph glyph-name="xiala" unicode="&#xe7b8;" 
d="M512 747q-91 0 -173.5 -35.5t-142.5 -95.5t-95.5 -142.5t-35.5 -173.5t35.5 -173.5t95.5 -142.5t142.5 -95.5t173.5 -35.5t174 35.5t142.5 95.5t95 142.5t35.5 173.5t-35.5 173.5t-95 142.5t-142.5 95.5t-174 35.5zM512 -84q-104 0 -192.5 51.5t-140 140t-51.5 192.5
t51.5 192.5t140 140t192.5 51.5t192.5 -51.5t140 -140t51.5 -192.5t-51.5 -192.5t-140 -140t-192.5 -51.5zM721 380l-49 49l-160 -160l-160 160l-49 -49l209 -209z" />
    <glyph glyph-name="weXin" unicode="&#xe657;" 
d="M387 530q-64 -11 -108 -50.5t-58.5 -87.5t3.5 -99t68 -84q6 -3 5.5 -8t-9.5 -30l-10 -30l71 38l19 -4q34 -9 62 -9h10l-4 14q-13 49 9.5 96t72 76.5t110.5 29.5h17l-4 12q-20 71 -95 111t-159 25v0zM371 441q14 -9 15 -25.5t-13 -25.5q-22 -14 -40 3.5t-3 39.5q6 9 19 12
t22 -4v0zM521 441q14 -11 14.5 -26t-12 -25t-29.5 -4q-18 7 -20 27t16 29q17 9 31 -1v0zM589 366q-66 -12 -106.5 -56.5t-37.5 -101.5q2 -49 38 -88t88 -52t112 0l13 4l29 -16q28 -15 29 -13.5t-7 24.5q-7 21 -6.5 24.5t9.5 9.5q33 24 48 56.5t11.5 64t-22 61.5t-47 51
t-68.5 30.5t-83 1.5v0zM585 284q6 -4 8.5 -12t0.5 -15q-6 -15 -22.5 -16t-22.5 14q-7 16 7 27.5t29 1.5v0zM707 282q9 -9 8 -21t-12 -17q-16 -9 -28.5 3.5t-4.5 28.5q6 10 17.5 12t19.5 -6v0zM891 64q47 80 58 173t-16 181q-26 84 -84 152.5t-136 109.5q-83 42 -177.5 47
t-180.5 -28q-83 -32 -147.5 -94t-99.5 -142q-37 -89 -36 -183q2 -93 43 -181q37 -79 103.5 -138.5t150.5 -88.5q88 -31 182 -22.5t175 54.5q25 13 48 31q9 6 11 14q2 9 -2 17q-5 8 -14.5 11t-17.5 -3q-35 -26 -74 -44l-10 -5l-2 -1l1 1q-1 -1 -5 -2q-10 -4 -21 -8
q-20 -7 -42 -12q-10 -2 -21 -4q-4 -1 -11 -2h-1q-3 0 -7 -1q-22 -2 -46 -2q-22 0 -46 2q-2 1 -6 1h-1q-4 1 -11 2q-10 2 -22 4q-20 5 -42 12q-9 3 -20 7q-1 1 -4 2q-1 0 -1 1q-5 2 -11 5q-38 17 -72 42q-2 1 -4 4h-1q-3 3 -8 6q-8 7 -16 15q-15 13 -30 29q-6 7 -13 15
q-1 2 -3 4l-1 2l1 -1q-3 4 -7 9q-12 17 -23 35q-10 18 -20 39q-1 2 -2 5v1q-2 4 -4 9q-4 10 -8 21q-6 20 -11 43q-2 10 -4 21q0 2 -1 6v1q-1 5 -1 13q-5 44 1 91v3h1q-1 0 -1 -2q0 1 1 5t2 10q2 11 4 23q5 21 13 43q3 9 8 20l-1 -2q1 2 1 3q1 1 2 4q2 5 5 11q9 18 21 37
q10 18 24 35l-1 -1l1 2l4 4q2 3 6 8q6 7 14 16q14 14 30 28q7 6 16 13l1 1t4 3q4 3 9 6q34 25 75 42l-2 -1l2 1q2 1 5 2q4 2 10 4q10 3 21 7q21 6 44 11q4 1 11 2h5l2 1h-1q11 1 24 2q21 2 45 1q10 0 22 -1q4 -1 10 -1q2 0 6 -1q4 0 -1 0h4q21 -3 44 -9q21 -6 42 -14
q4 -1 10 -3l2 -1h-1q1 0 4 -2q10 -4 20 -9q19 -9 38 -21q8 -6 17 -12q3 -2 8 -6q1 -1 4 -3v0l2 -1q32 -26 59 -59q3 -3 6 -7q1 -1 3 -4v1l1 -2q6 -8 13 -18q11 -17 21 -36q5 -8 9 -18q2 -4 5 -9q0 -1 2 -5q1 -3 -1 1q1 -1 2 -3q8 -19 14 -41q5 -19 9 -40q1 -4 2 -11
q0 -1 1 -5v-1q1 -9 2 -21q3 -42 -2 -85q0 -4 0 1q0 -2 -1 -6q0 -4 -1 -10q-2 -10 -5 -22q-4 -19 -11 -40q-3 -9 -8 -19q0 -2 -2 -5l1 2q-1 -2 -1 -3q-2 -3 -4 -9q-8 -18 -19 -37q-5 -8 -2.5 -17t10.5 -14t17 -2.5t14 10.5v0v0z" />
    <glyph glyph-name="ie" unicode="&#xe85f;" 
d="M713 239h192q2 19 2 41q0 96 -48 179q51 134 -12 197q-29 31 -104 25.5t-166 -45.5q-13 1 -27 1q-124 0 -220.5 -76.5t-126.5 -194.5q80 103 182 152q-8 -8 -53 -52q-69 -70 -120 -152.5t-73 -153t-21.5 -127.5t25.5 -81q39 -37 102 -33.5t143 42.5q76 -38 162 -38
q116 0 208.5 67t129.5 174h-193q-21 -37 -58 -59.5t-81 -22.5t-80.5 22.5t-57.5 59.5q-18 35 -18 74v1h313v0zM400 333q3 59 46.5 100.5t103.5 41.5t103.5 -41.5t46.5 -100.5h-300v0zM845 616q41 -40 3 -141q-61 94 -166 136q118 51 163 5v0v0zM193 -36q-25 27 -19.5 78
t40.5 118q42 -120 152 -186q-126 -57 -173 -10v0z" />
    <glyph glyph-name="wangzhishouye" unicode="&#xe637;" 
d="M509 -200q-100 0 -192 39.5t-159 106.5t-106.5 159t-39.5 192q0 102 39.5 195.5t106.5 161t159 107t192 39.5t192 -39.5t159 -106.5t106.5 -159t39.5 -192q2 -102 -36.5 -195.5t-105 -161t-159.5 -107t-196 -39.5v0zM912 179q17 62 17 124q0 30 -12 101q-2 0 -5 -1.5
t-5 -3.5l-1 -1h-119q12 -60 12 -95q0 -47 -12 -118h125q-6 -6 0 -6v0zM308 297q0 -47 12 -118h154v213h-154q-12 -59 -12 -95v0zM704 392h-154v-213h148q12 41 12 118q0 65 -6 95v0zM888 125h-130q-49 -137 -160 -230q96 17 172.5 78.5t117.5 151.5v0zM687 125h-137v-201
v-12q94 94 137 213v0zM509 -117h6v0h2h-8v0v0zM509 -117v0v0v0v0zM474 -76v201h-137q43 -119 137 -213v12v0zM426 -105q-124 114 -166 230h-130q45 -90 122.5 -151.5t173.5 -78.5v0zM112 179h6h125q-12 41 -12 118q0 36 12 95h-119q-3 0 -8.5 3t-8.5 3q-12 -60 -12 -95
q0 -71 17 -124v0zM124 451h131q43 139 183 260q-109 -17 -193 -88.5t-121 -171.5v0zM331 451h143v237q-112 -122 -143 -237v0zM550 451h143q-35 129 -143 237v-237v0zM586 711q140 -121 183 -260h137q-41 99 -125.5 168.5t-194.5 91.5v0zM586 711z" />
    <glyph glyph-name="kequntoushi" unicode="&#xe6a9;" 
d="M286 92q-6 0 -10 4.5t-4 10.5v51q0 76 44 139q42 61 111 88l19 7l-16 13q-55 43 -55 112q0 59 42 100.5t101.5 41.5t101.5 -41.5t42 -100.5q0 -69 -55 -112l-16 -13l19 -7q69 -27 112 -88q43 -63 43 -139v-51q0 -6 -4 -10.5t-10 -4.5h-465zM519 374q-90 0 -154 -63.5
t-64 -152.5v-37h435v37q0 89 -63.5 152.5t-153.5 63.5v0zM519 631q-48 0 -81.5 -33.5t-33.5 -80.5t33.5 -80.5t81 -33.5t81 33.5t33.5 80.5t-33.5 80.5t-80.5 33.5v0zM183 169q-6 0 -10 4.5t-4 9.5v40q0 55 28 101t77 71l13 7l-10 11q-31 33 -31 78q0 44 29.5 77t72.5 39
q-10 -16 -17 -34q-25 -10 -40.5 -32.5t-15.5 -49.5q0 -26 14 -48t38 -32v-1h1q10 -3 10 -12.5t-10 -13.5l-5 -1q-55 -14 -90 -58.5t-35 -101.5v-25h23q-2 -14 -3 -29h-35zM819 169q-1 14 -3 29h23v25q0 57 -35 101.5t-90 58.5l-5 1q-10 4 -10 13.5t10 12.5v0l1 1
q24 10 38 32t14 48q0 27 -15.5 49.5t-40.5 32.5q-7 18 -17 34q43 -6 72.5 -39t29.5 -77q0 -45 -31 -78l-10 -11l13 -7q49 -25 77 -71t28 -101v-40q0 -5 -4 -9.5t-10 -4.5h-35zM522 858q-102 0 -194 -39.5t-159 -106t-106.5 -159t-39.5 -194t39.5 -194t106.5 -159.5
t159 -106.5t194 -39.5t194 39.5t159 106.5t106.5 159.5t39.5 194t-39.5 194t-106.5 159t-159 106t-194 39.5zM522 -116q-97 0 -185 38t-151.5 101.5t-101 151.5t-37.5 184.5t37.5 184.5t101 151.5t151.5 101t185 37.5t184.5 -37.5t151.5 -101t101.5 -151.5t37.5 -184.5
t-37.5 -184.5t-101.5 -151.5t-151.5 -101.5t-184.5 -38z" />
    <glyph glyph-name="jingzhunpipei" unicode="&#xe645;" 
d="M512 812q-104 0 -199 -40.5t-163.5 -109t-109 -163.5t-40.5 -199q0 -141 72 -262q6 -10 18 -13t23 3t14 18.5t-3 22.5q-54 91 -62 201h211q10 -82 68.5 -140.5t140.5 -68.5v-210q-143 9 -252 96q-9 8 -21.5 6.5t-20.5 -11.5t-6.5 -22t11.5 -20q140 -112 319 -112
q104 0 199 40.5t163.5 109t109 163.5t40.5 199t-40.5 199t-109 163.5t-163.5 109t-199 40.5zM962 330h-211q-10 82 -68.5 140.5t-140.5 68.5v211q111 -7 204.5 -64.5t151 -151t64.5 -204.5zM542 270h149q-10 -57 -51 -98t-98 -51v149zM542 330v149q57 -10 98 -51t51 -98
h-149zM482 330h-149q10 57 51 98t98 51v-149zM482 750v-211q-82 -10 -140.5 -68.5t-68.5 -140.5h-211q7 111 64.5 204.5t151 151t204.5 64.5zM333 270h149v-149q-57 10 -98 51t-51 98zM542 -150v211q82 10 140.5 68.5t68.5 140.5h211q-7 -111 -64.5 -204.5t-151 -151
t-204.5 -64.5z" />
    <glyph glyph-name="iconsb" unicode="&#xe77a;" 
d="M953 649l-76 62l-361 -315l-323 328l-126 -126l343 -295l-337 -294l126 -126l321 326l364 -313l62 62l-336 342z" />
    </font>
</defs>
</svg>
